<?xml version="1.0" encoding="UTF-8" standalone="no"?>
<svg
   viewBox="0 0 315.84406 315.82843"
   version="1.1"
   id="svg73"
   sodipodi:docname="logo.svg"
   width="315.84406"
   height="315.82843"
   inkscape:version="1.2.2 (b0a8486541, 2022-12-01)"
   inkscape:export-filename="logo.svg"
   inkscape:export-xdpi="96"
   inkscape:export-ydpi="96"
   xmlns:inkscape="http://www.inkscape.org/namespaces/inkscape"
   xmlns:sodipodi="http://sodipodi.sourceforge.net/DTD/sodipodi-0.dtd"
   xmlns:xlink="http://www.w3.org/1999/xlink"
   xmlns="http://www.w3.org/2000/svg"
   xmlns:svg="http://www.w3.org/2000/svg"
   xmlns:rdf="http://www.w3.org/1999/02/22-rdf-syntax-ns#"
   xmlns:cc="http://creativecommons.org/ns#"
   xmlns:dc="http://purl.org/dc/elements/1.1/">
  <sodipodi:namedview
     id="namedview75"
     pagecolor="#ffffff"
     bordercolor="#000000"
     borderopacity="0.25"
     inkscape:showpageshadow="2"
     inkscape:pageopacity="0.0"
     inkscape:pagecheckerboard="0"
     inkscape:deskcolor="#d1d1d1"
     showgrid="false"
     inkscape:zoom="2.6289308"
     inkscape:cx="36.326555"
     inkscape:cy="134.84569"
     inkscape:window-width="1858"
     inkscape:window-height="1039"
     inkscape:window-x="62"
     inkscape:window-y="0"
     inkscape:window-maximized="1"
     inkscape:current-layer="svg73" />
  <defs
     id="defs37">
    <pattern
       inkscape:collect="always"
       xlink:href="#a"
       id="pattern199"
       patternTransform="translate(-0.57797334,-1.5857864)" />
    <pattern
       inkscape:collect="always"
       xlink:href="#a"
       id="pattern197"
       patternTransform="translate(-0.57797334,-1.5857864)" />
    <pattern
       inkscape:collect="always"
       xlink:href="#a"
       id="pattern195"
       patternTransform="translate(-0.57797334,-1.5857864)" />
    <pattern
       inkscape:collect="always"
       xlink:href="#a"
       id="pattern193"
       patternTransform="translate(-0.57797334,-1.5857864)" />
    <pattern
       inkscape:collect="always"
       xlink:href="#a"
       id="pattern191"
       patternTransform="translate(-0.57797334,-1.5857864)" />
    <pattern
       inkscape:collect="always"
       xlink:href="#a"
       id="pattern189"
       patternTransform="translate(-0.57797334,-1.5857864)" />
    <pattern
       inkscape:collect="always"
       xlink:href="#a"
       id="pattern187"
       patternTransform="translate(-0.57797334,-1.5857864)" />
    <pattern
       inkscape:collect="always"
       xlink:href="#a"
       id="pattern185"
       patternTransform="translate(-0.57797334,-1.5857864)" />
    <pattern
       inkscape:collect="always"
       xlink:href="#a"
       id="pattern183"
       patternTransform="translate(-0.57797334,-1.5857864)" />
    <style
       id="style2">.a,.b,.i,.j{fill:none;}.b,.e,.g,.h{stroke:#fbb040;}.b{stroke-linecap:round;stroke-linejoin:round;}.c,.e{fill:#253367;}.c,.d,.i{stroke:#e9c29c;}.c,.d,.e,.f,.g,.h,.i,.j{stroke-miterlimit:10;}.c,.d,.e,.f,.g,.i,.j{stroke-width:2px;}.d{fill:#f7f0d5;}.f,.j{stroke:#253367;}.f,.g{fill:url(#a);}.h{fill:#78a6b3;}</style>
    <pattern
       id="a"
       width="42"
       height="42"
       patternUnits="userSpaceOnUse"
       viewBox="0 0 42 42">
      <rect
         class="a"
         width="42"
         height="42"
         id="rect4" />
      <polyline
         class="b"
         points="-2 2 2 2 2 3 2 5 2 8 -2 8 -2 5 2 4"
         id="polyline6" />
      <polyline
         class="b"
         points="-2 13 2 16 3 21 5 23 8 20 6 17 0 19 -4 15"
         id="polyline8" />
      <polyline
         class="b"
         points="-3 27 4 26 1 39 2 35 0 34"
         id="polyline10" />
      <line
         class="b"
         y1="30"
         x2="3"
         y2="30"
         id="line12" />
      <polyline
         class="b"
         points="36 9 32 10 32 16 36 16 36 8 36 21 30 19"
         id="polyline14" />
      <polyline
         class="b"
         points="12 2 12 -4 16 -4 18 2 20 2 21 -5"
         id="polyline16" />
      <polyline
         class="b"
         points="29 2 29 -5 38 3 33 2"
         id="polyline18" />
      <polyline
         class="b"
         points="14 12 19 8 22 18 15 23 17 27 22 27 22 22 16 24"
         id="polyline20" />
      <line
         class="b"
         x1="18"
         y1="14"
         x2="20"
         y2="13"
         id="line22" />
      <polyline
         class="b"
         points="9 31 10 35 12 32"
         id="polyline24" />
      <polyline
         class="b"
         points="27 33 29 26 29 23 36 28 33 31"
         id="polyline26" />
      <line
         class="b"
         x1="31"
         y1="28"
         x2="29"
         y2="27"
         id="line28" />
      <polyline
         class="b"
         points="23 36 22 33 20 33"
         id="polyline30" />
      <polyline
         class="b"
         points="8 7 9 11 12 9 11 8"
         id="polyline32" />
      <line
         class="b"
         x1="27"
         y1="8"
         x2="32"
         y2="10"
         id="line34" />
    </pattern>
  </defs>
  <title
     id="title39">Samarkand Logo</title>
  <g
     id="g217">
    <polygon
       class="c"
       points="269,49 269,114 315,160 269,205 269,270 204,270 158,316 112,270 48,270 48,205 2,160 48,114 48,49 112,49 158,3 204,49 "
       id="polygon41"
       transform="translate(-0.57797334,-1.5857864)" />
    <polygon
       class="d"
       points="244,73 244,124 279,159 244,195 244,245 194,245 158,280 122,245 72,245 72,195 37,159 72,124 72,73 122,73 158,38 194,73 "
       id="polygon43"
       transform="translate(-0.57797334,-1.5857864)" />
    <circle
       class="e"
       cx="156.42203"
       cy="158.41422"
       r="71"
       id="circle45" />
    <circle
       class="f"
       cx="157.42203"
       cy="157.41422"
       r="69"
       id="circle47"
       style="fill:url(#pattern183)" />
    <path
       class="g"
       d="m 80.422027,235.41421 v -41 l 11,-2 c 0,0 7,13 14.000003,19 7,6 20,14 20,14 v 12 z"
       id="path49"
       style="fill:url(#pattern185)" />
    <path
       class="g"
       d="m 234.42203,81.414214 v 40.999996 l -11,2 c 0,0 -7,-13 -13,-19 -6,-5.999996 -20,-14.999996 -20,-14.999996 v -12 z"
       id="path51"
       style="fill:url(#pattern187)" />
    <path
       class="g"
       d="m 48.422027,158.41421 29,-30 9,7 c 0,0 -4,15 -4,23 0,8 4,25 4,25 l -9,8 z"
       id="path53"
       style="fill:url(#pattern189)" />
    <path
       class="g"
       d="m 266.42203,158.41421 -29,30 -9,-6 c 0,0 4,-14 4,-23 0,-9 -4,-25 -4,-25 l 9,-7 z"
       id="path55"
       style="fill:url(#pattern191)" />
    <path
       class="g"
       d="m 80.422027,81.414214 h 41.000003 l 2,11 c 0,0 -13,7 -19,13.999996 -6.000003,7 -14.000003,20 -14.000003,20 h -13 z"
       id="path57"
       style="fill:url(#pattern193)" />
    <path
       class="g"
       d="m 234.42203,235.41421 h -41 l -2,-11 c 0,0 13,-7 19,-13 6,-6 15,-20 15,-20 h 12 z"
       id="path59"
       style="fill:url(#pattern195)" />
    <path
       class="g"
       d="m 157.42203,49.414214 30,29 -6,9 c 0,0 -14,-4 -23,-4 -9,0 -24,4 -24,4 l -7,-9 z"
       id="path61"
       style="fill:url(#pattern197)" />
    <path
       class="g"
       d="m 157.42203,267.41421 -30,-29 7,-9 c 0,0 14,4 23,4 9,0 25,-4 25,-4 l 8,9 z"
       id="path63"
       style="fill:url(#pattern199)" />
    <circle
       class="h"
       cx="157.42203"
       cy="158.41422"
       r="15"
       id="circle65" />
    <circle
       class="i"
       cx="157.42203"
       cy="158.41422"
       r="9"
       id="circle67" />
    <polygon
       class="i"
       points="266,52 266,115 310,160 266,204 266,267 203,267 158,311 114,267 51,267 51,204 6,160 51,115 51,52 114,52 158,8 203,52 "
       id="polygon69"
       transform="translate(-0.57797334,-1.5857864)" />
    <polygon
       class="j"
       points="241,75 241,124 276,159 241,193 241,242 192,242 158,277 123,242 75,242 75,193 40,159 75,124 75,75 123,75 158,41 192,75 "
       id="polygon71"
       transform="translate(-0.57797334,-1.5857864)" />
  </g>
  <metadata
     id="metadata181">
    <rdf:RDF>
      <cc:Work
         rdf:about="">
        <dc:title>Samarkand Logo</dc:title>
      </cc:Work>
    </rdf:RDF>
  </metadata>
</svg>
