<?xml version="1.0" encoding="UTF-8"?>
<!DOCTYPE svg PUBLIC "-//W3C//DTD SVG 1.1//EN" "http://www.w3.org/Graphics/SVG/1.1/DTD/svg11.dtd">
<!-- Creator: CorelDRAW -->
<svg xmlns="http://www.w3.org/2000/svg" xml:space="preserve" width="100mm" height="100mm" style="shape-rendering:geometricPrecision; text-rendering:geometricPrecision; image-rendering:optimizeQuality; fill-rule:evenodd; clip-rule:evenodd"
viewBox="0 0 100 100">
 <defs>
  <style type="text/css">
   <![CDATA[
    .fil0 {fill:black}
    .fil3 {fill:#55DDFF}
    .fil2 {fill:red}
    .fil4 {fill:#FFCC00}
    .fil1 {fill:white}
   ]]>
  </style>
 </defs>
 <g id="Слой_x0020_1">
  <metadata id="CorelCorpID_0Corel-Layer"/>
  <ellipse class="fil0" cx="50" cy="50" rx="50" ry="50"/>
  <ellipse class="fil1" cx="50" cy="50" rx="48.4296" ry="48.4296"/>
  <ellipse class="fil0" cx="50" cy="50" rx="47.8021" ry="47.8021"/>
  <ellipse class="fil1" cx="50" cy="50" rx="44.1771" ry="44.1771"/>
  <ellipse class="fil0" cx="50" cy="50" rx="43.2637" ry="43.2637"/>
  <circle class="fil2" cx="50" cy="50" r="42.777"/>
  <path class="fil0" d="M37.85 73.2589c-0.6456,-0.1932 -1.0855,-0.7581 -1.2634,-1.1791 -0.1672,-0.3955 -0.0942,-0.6367 -0.0196,-1.1464 0.1239,-0.8469 0.3955,-1.6318 1.016,-1.993 0.5486,-0.3194 0.9212,-0.2682 1.5104,-0.163 0.3022,0.0539 0.6372,0.126 0.9237,0.2256l0.0042 0.0021 0.0199 -0.2343 -0.0061 -0.002c0.0026,-0.2603 -0.0442,-0.5337 -0.0763,-0.7814 -0.2248,-1.7393 -0.7578,-2.5547 -1.9091,-4.2085 -0.5048,-0.7252 -0.9656,-1.3658 -1.6188,-2.5427 -0.4173,-0.7518 -0.7491,-1.5439 -1.1236,-2.3138 -1.0945,-0.5452 -1.6147,1.082 -1.7645,1.8519 -0.0597,0.053 -0.0719,0.0638 -1.3673,0.4261 -1.2782,0.3574 -2.4789,0.5647 -3.8129,0.6417 -0.7965,0.0459 -1.8019,0.0661 -2.7738,0.0615 -1.1016,-0.0052 -2.1678,-0.0157 -2.9729,0.428 -0.2828,0.1559 -0.5495,0.346 -0.7636,0.5648 -0.722,0.7377 -0.1096,1.2014 -0.447,2.01 -0.3051,0.731 -0.8537,1.3568 -1.2951,2.0425 -0.4889,0.7595 -0.8384,1.5963 -1.0746,2.4939 -0.5722,0.6892 -1.3502,0.7257 -2.1136,0.5281 -0.8703,-0.2252 -1.241,-0.9019 -1.6409,-1.6851 -0.2798,-0.5482 -0.3488,-0.9041 -0.3488,-1.5023 0,-0.6636 0.379,-1.3795 0.7706,-2.0899 0.8067,-1.4636 1.7721,-2.898 2.8757,-4.157 2.2913,-2.614 5.3369,-4.8452 7.3139,-7.7269 0.4253,-0.6199 0.842,-1.1029 0.8262,-1.8854 -0.0106,-0.5247 -0.0457,-1.185 -0.0853,-3.3592 -0.0245,-1.3479 -0.1489,-2.4764 -0.4446,-3.7975 -0.0845,-0.3778 -0.1739,-0.7544 -0.2699,-1.1312 -0.2537,-0.9953 -0.6913,-1.8043 -1.1607,-2.7178 -0.2411,-0.4694 -0.4723,-0.9387 -0.6671,-1.4209 -0.5744,-1.4225 -0.5849,-2.5044 -0.3091,-3.9589 0.1031,-0.544 0.2173,-1.0826 0.3497,-1.6246 0.1039,-0.4256 0.1641,-0.7155 0.1516,-1.1528 -0.0193,-0.6794 -0.0173,-1.545 0.4046,-2.0342 0.3559,-0.4128 0.8345,-0.4727 1.3148,-0.6326 0.197,-0.0656 0.5758,0.0751 0.7643,0.178 0.4702,0.2566 1.082,0.8516 1.4834,0.7836 1.0563,0.0117 2.001,0.0222 2.991,0.0346 0.6851,0.0086 1.1661,0.1017 1.7709,-0.2292 0.5675,-0.3106 1.1849,-0.6776 1.7748,-0.6776 0.4914,0.0052 1.3901,0.4553 1.5792,1.355 0.1718,0.8167 0.0916,1.8065 0.2841,2.6599 0.3295,1.4608 0.8814,2.9499 1.8148,4.1124 0.2312,0.288 0.5027,0.5647 0.7603,0.7934 0.2467,0.2189 0.3983,0.3557 0.6945,0.4813 0.8141,-0.6129 3.2106,-2.3286 5.8665,-3.9136 1.3392,-0.7993 2.8339,-1.5708 4.1406,-2.3321 0.9919,-0.5779 2.6865,-1.5737 3.1684,-2.8306 0.1886,-0.4918 0.2736,-1.0061 -0.0653,-1.5773 -0.1773,-0.2988 -0.5691,-0.3903 -0.7445,0.0567 -0.052,0.1324 -0.0179,0.3137 0.0134,0.5092 0.0769,0.4801 0.1149,0.831 -0.4762,0.9026 -0.2134,0.0259 -0.4928,0.0885 -0.6809,-0.0713 -0.2227,-0.1892 -0.4258,-0.3299 -0.5951,-0.566 -0.4745,-0.6611 -0.2099,-1.6074 0.2926,-2.2372 0.6016,-0.7541 2.1152,-1.2227 3.0981,-0.6093 0.1985,-0.0159 0.4647,-0.0648 0.7648,-0.054 0.4819,0.0174 0.9403,0.0693 1.341,0.3513 0.7132,-0.3738 1.5475,-0.094 2.0358,0.456 0.2558,0.2881 0.3186,0.6309 0.408,0.9673 0.7695,-0.7806 1.5009,-2.5136 1.2676,-3.6553 -0.2387,-1.1682 -1.4951,-1.6561 -1.948,-0.9731 -0.4702,0.7091 0.5962,1.0399 0.2142,1.6968 -0.1677,0.2884 -0.6432,0.5494 -1.2152,0.5494 -0.3579,-0.101 -0.6382,-0.2836 -0.8487,-0.5277 -0.9762,-1.1321 -0.2701,-3.3407 1.1148,-3.8064 0.8693,-1.3058 1.4625,-1.7409 2.808,-2.2272 0.9752,-1.2909 2.7335,-1.1125 4.0271,-1.2171 2.1254,-0.851 3.9281,0.3531 5.1101,1.0222 1.6938,0.3103 3.7945,2.4679 4.3475,4.5297 0.7996,1.1941 1.3727,2.3874 1.6766,3.6304 0.2946,1.205 0.4101,2.4423 0.3136,3.5864 -0.0965,1.1442 -0.4049,2.1953 -0.775,3.3619 -0.4168,3.7201 -1.9689,5.884 -4.2802,8.2982 1.3382,0.3282 2.7289,0.6905 4.0207,1.2326 1.935,0.812 2.9842,2.2044 4.3306,3.718 0.9184,1.0325 1.8907,2.0218 3.0118,2.7315 0.5592,0.2573 1.126,0.4922 1.6813,0.4032 0.6488,-0.104 0.8972,-0.4159 1.0758,-1.0372 0.1992,-0.6929 0.0353,-1.2905 -0.3319,-1.8116 -0.75,-1.0647 -2.2634,-1.8499 -3.4205,-2.3783 -0.8429,-0.3851 -1.9982,-0.7724 -2.7248,-1.4012 -0.7704,-0.6666 -1.0972,-0.8447 -1.5788,-1.6712 -0.4937,-0.8471 -0.73,-1.3758 -0.7265,-2.3933 0.0027,-0.7789 0.1873,-1.4946 0.6625,-2.1326 1.1519,-1.5466 3.0049,-1.2776 4.668,-1.2776 0.5714,-0.6424 0.8791,-1.0404 1.6128,-1.167 0.8786,-0.1517 1.713,0.7379 2.2164,1.3991 0.4506,0.5918 0.6624,0.8666 1.6598,0.8666 0.8238,1.838 -1.2264,3.7688 -2.889,3.8781 -0.4113,0.027 -0.7913,-0.0112 -1.1218,-0.0902 -0.8349,-0.1995 -1.2417,-0.599 -1.5561,-1.356 -0.0842,-0.2029 -0.1577,-0.4254 -0.2135,-0.6674 -0.5742,-0.1457 -1.0311,-0.295 -1.4158,0.1518 -0.277,0.3216 -0.2234,0.8844 0.0069,1.3185 0.224,0.4223 0.6316,0.6151 1.0514,0.7914 2.163,0.9082 4.3357,1.5223 6.2059,2.9966 0.2975,0.2346 0.5631,0.506 0.8145,0.7925 1.7963,2.047 2.1506,4.6719 0.7655,7.0123 -1.1103,1.8759 -3.4873,2.77 -5.5886,2.5951 -1.7137,-0.1426 -3.0535,-0.6753 -4.9776,-1.7177 -0.0152,2.3899 0.1086,4.7757 1.4018,6.5799 0.8382,1.1696 2.3781,2.2126 3.7169,2.7634 0.3465,0.1426 0.6742,0.3121 0.8823,0.7033 0.0855,0.3368 0.0755,0.7398 0.0316,1.1513 -0.2301,2.1566 -0.6261,4.6123 -1.3565,6.6287 -0.3599,0.9937 -0.8605,1.904 -1.7089,2.4782 -0.1013,0.0686 -0.233,0.0749 -0.3495,0.1166 -4.9107,0 -4.9107,0 -5.9511,-0.0583 -1.0674,-1.0674 -0.8253,-1.6875 -0.4312,-2.7451 0.1678,-0.4502 0.2689,-0.8291 0.6387,-1.1661 0.4666,-0.4251 1.0833,-0.5322 1.7105,-0.2322 0.2992,0.1432 0.3965,0.4019 0.8578,0.3855 0.2164,-0.258 0.0666,-1.4607 0.025,-1.8768 -0.154,-0.308 -0.308,-0.616 -0.462,-0.9239 -1.7353,-2.3346 -4.4246,-3.2293 -6.9622,-4.4237 -0.5347,-0.2517 -1.0071,-0.5827 -1.4441,-0.8074 -2.0404,0 -1.6047,1.8508 -1.5423,3.3234 0.0188,0.4441 -0.1193,0.8431 -0.3907,1.2016 -1.0352,1.3669 -2.0904,2.788 -3.1834,4.1153 -0.4013,0.4874 -0.6756,0.9434 -1.0477,1.3288 -0.4937,0.5114 -1.1142,0.9033 -1.9884,1.1256 -1.8056,-0.0196 -3.6076,-0.0393 -5.4094,-0.0555 -0.3152,-0.0028 -0.4634,-0.0385 -0.6985,-0.2795 -0.486,-0.4982 -0.4404,-1.2754 -0.2378,-2.0001 0.2211,-0.791 0.5269,-1.2614 1.1513,-1.8003 0.4562,-0.3937 1.1003,-0.6889 1.6603,-0.3583 0.3479,0.2055 0.6634,0.408 0.9579,0.5935l0.0086 0.0053 0.2312 -0.2078 -0.0099 -0.0063c0.6281,-0.6706 0.9142,-1.8627 0.9987,-2.6605 0.1264,-1.1944 -0.082,-2.2375 -0.4892,-3.3599 -0.2976,-0.82 -0.5626,-1.9145 -0.4597,-2.7943 0.1186,-1.0133 0.3673,-2.0201 0.7776,-3.0151 -0.2834,0.0553 -0.5157,0.0801 -0.7489,0.1409 -0.99,0.2581 -1.9839,0.7804 -2.9587,1.1228 -0.6021,0.2115 -1.257,0.3437 -1.9265,0.4643 -0.7587,0.1367 -1.535,0.2438 -2.2546,0.163 -1.3198,-0.1482 -3.0545,-0.5544 -4.0758,0.0733 -0.0049,0.1962 -0.0088,0.3471 -0.0144,0.5724 -0.0528,2.1035 -0.0598,2.6378 -0.1043,7.6955 -0.0081,0.9167 -0.0809,1.7154 -0.2566,2.6191 -0.1623,0.8345 -0.3074,1.7229 -0.7628,2.4592 -0.3144,0.5085 -0.8056,0.8839 -1.3297,1.1485 -2.0641,0.1249 -4.1241,0.2497 -6.184,0.3787z"/>
  <path class="fil1" d="M57.409 68.4598c0.1684,0.104 0.3817,0.2362 0.4016,0.2482 0.1397,0.0838 0.2755,0.1616 0.4088,0.2317 0.059,0.031 0.0946,0.0695 0.1021,0.1412 0.0102,0.098 -0.0298,0.1927 -0.1132,0.2424 -0.5096,0.304 -1.6093,-0.8021 -1.9227,-1.0083 -1.3268,-0.3719 -1.7193,0.6668 -2.0227,1.7164 -0.1767,0.6113 -0.2061,1.4202 0.6369,1.5504 -0.0146,-0.6636 0.0086,-1.7578 0.4777,-2.3244 0.2429,-0.2934 0.74,-0.5138 1.0821,-0.2497 0.2175,0.1679 0.0174,0.2447 -0.1807,0.2807 -0.5571,0.1012 -0.8257,0.6731 -0.8738,1.2111 -0.0308,0.3449 -0.0488,0.7103 0.0926,0.985 0.0839,0.1571 0.4013,0.1842 0.5196,0.1864 -0.0828,-0.5462 0.1219,-1.3102 0.5385,-1.6897 0.2394,-0.218 0.5622,-0.2629 1.0157,0.0234 0.0354,0.0223 0.0542,0.1057 0.0167,0.1331 -0.2024,0.1482 -0.4249,0.1149 -0.6035,0.1544 -0.1785,0.0395 -0.3037,0.2669 -0.4082,0.8087 -0.0863,0.4476 0.0296,0.7738 1.1573,0.6808 0.2261,-0.2148 0.5121,-0.3328 0.7116,-0.3255 0.2262,0.0082 0.4533,0.1516 0.849,0.3837 1.5508,0 2.3907,-1.2474 3.293,-2.3182 1.0327,-1.2254 2.0043,-2.5149 2.9061,-3.8267 0.1689,-0.2456 0.1573,-0.4653 0.0753,-0.7604 -0.3901,-1.4013 -0.0547,-2.6016 0.946,-3.531 0.245,-0.2274 0.4648,-0.3818 0.7666,-0.5142 -0.2461,-0.1571 -0.4378,-0.328 -0.655,-0.5244 -0.3162,-0.2858 -0.602,-0.5477 -0.8323,-0.8651 -0.5713,-0.787 -0.9198,-1.7157 -1.3851,-2.7747 -0.3476,-0.5064 -1.0327,-0.6599 -1.7592,-0.6931 -1.009,-0.0462 -2.214,-0.0391 -3.2015,0.2144 -1.4956,2.7333 -0.7687,4.9855 0.0801,7.78 0.1456,0.4794 0.0651,0.9832 -0.0249,1.4718 -0.1423,0.7724 -0.4177,1.4715 -0.7749,2.2253 -0.1125,0.2374 -0.3384,0.8234 -0.6793,0.7696 -0.063,-0.0099 -0.2987,-0.1668 -0.4102,-0.2423 -0.0733,0.0743 -0.1444,0.1394 -0.2301,0.209zm-29.1298 -28.9485c0.2097,0.0536 0.3886,-0.0401 0.2795,-0.2025 -0.0307,-0.0456 -0.0625,-0.0279 -0.1915,-0.1026 -0.487,-0.2821 -0.345,-0.2453 -0.8578,-0.5359 -0.0873,-0.0495 -0.1703,-0.1756 -0.2878,-0.159 -0.1211,0.0171 -0.156,0.1618 -0.118,0.2518 0.1967,0.4648 0.5648,0.5921 1.1756,0.7482zm0.0236 0.9323c0.2143,0.0311 0.3761,-0.04 0.2503,-0.19 -0.0353,-0.0421 -0.0494,-0.1096 -0.1922,-0.1527 -0.5404,-0.1629 -0.8584,-0.2644 -1.265,-0.6652 -0.0715,-0.0705 -0.1185,-0.1658 -0.2336,-0.1368 -0.1187,0.0299 -0.1011,0.1657 -0.0907,0.2628 0.0685,0.6337 0.9074,0.7913 1.5312,0.8819zm-0.1532 0.8565c0.2146,0.0286 0.3941,-0.0995 0.2665,-0.248 -0.0358,-0.0416 -0.0692,-0.054 -0.2125,-0.0953 -0.5423,-0.1566 -0.9553,-0.3058 -1.3666,-0.7018 -0.0724,-0.0697 -0.1205,-0.1644 -0.2352,-0.1341 -0.1184,0.0314 -0.0992,0.1669 -0.0875,0.2639 0.0759,0.6329 1.0104,0.8321 1.6353,0.9153zm3.9092 -1.6403c-0.2097,0.0537 -0.3886,-0.0401 -0.2794,-0.2025 0.0306,-0.0455 0.0624,-0.0279 0.1914,-0.1026 0.4871,-0.2821 0.345,-0.2453 0.8578,-0.5359 0.0874,-0.0495 0.1703,-0.1756 0.2878,-0.159 0.1212,0.0172 0.156,0.1619 0.118,0.2518 -0.1967,0.4649 -0.5648,0.5921 -1.1756,0.7482zm0.1548 0.9208c-0.2143,0.0311 -0.3761,-0.0401 -0.2503,-0.19 0.0353,-0.0421 0.0494,-0.1096 0.1922,-0.1527 0.5404,-0.1629 0.8584,-0.2644 1.2649,-0.6652 0.0716,-0.0705 0.1186,-0.1658 0.2337,-0.1368 0.1187,0.0299 0.1011,0.1657 0.0907,0.2628 -0.0685,0.6337 -0.9074,0.7912 -1.5312,0.8819zm0.0308 0.83c-0.2165,0.0049 -0.3808,-0.1421 -0.2378,-0.2757 0.0402,-0.0375 0.0747,-0.0461 0.2217,-0.0715 0.5562,-0.0962 0.9831,-0.1992 1.4353,-0.5477 0.0796,-0.0614 0.1378,-0.1502 0.2485,-0.1075 0.1142,0.0441 0.0803,0.1767 0.0581,0.2719 -0.1449,0.6207 -1.0956,0.7162 -1.7258,0.7305zm-3.4708 -7.7447c-0.411,-0.1661 -0.7955,-0.6527 -0.6075,-0.928 0.2004,-0.2936 0.4984,-0.283 0.7241,0 0.1249,0.1567 0.2244,0.4855 0.2039,0.8115 -0.0065,0.1028 -0.0889,0.2101 -0.3205,0.1165zm3.0047 0c-0.0423,0.0068 -0.1137,-0.0173 -0.1124,-0.0582 0.0245,-0.7347 0.6703,-1.3003 1.1528,-0.8698 0.4301,0.3838 -0.5029,0.8417 -1.0404,0.928zm-0.9166 -2.6783c-0.1426,0.2535 -0.3301,0.5598 -0.5336,0.5569 -0.2427,-0.0036 -0.4061,-0.2885 -0.5678,-0.5441 -0.1184,-0.1871 -0.1227,-0.1704 -0.3423,-0.153 -0.4183,0.0332 -0.8659,0.0947 -1.3678,0.1791 -0.4071,0.0684 -0.6322,-0.1519 -0.8716,-0.5202 -0.126,-0.1938 -0.3386,-0.5112 -0.3692,-0.54 -0.3506,-0.3302 -0.9717,-0.2352 -1.2989,-0.0969 -0.4207,0.1778 -0.636,0.5742 -0.6945,1.2788 0.0364,0.4716 0.0306,0.8929 -0.0216,1.3039 -0.0986,0.7768 -0.4297,1.4553 -0.5194,2.2322 -0.2708,2.3448 -0.0384,3.8628 1.6688,5.7733 0.6551,0.5866 1.1813,1.1556 1.7348,1.4015 0.802,0.3564 2.072,-0.2034 2.1703,-1.1235 0.0554,-0.5178 -0.2375,-0.894 -0.5493,-1.3086 -0.2174,-0.289 -0.3983,-0.4928 -0.4182,-0.8586 -0.0401,-0.7354 0.0858,-2.1401 -0.7445,-2.4471 -0.3537,0 -0.6788,-0.0223 -1.0098,-0.0358 -0.6781,-0.0275 -1.1392,-0.3511 -1.4468,-0.9438 -0.1327,-0.2557 -0.2384,-0.5254 -0.6521,-0.5977l0 -0.4453c1.2246,0.0921 2.2273,-0.3544 3.3534,0.2832 0.3554,0.2013 0.5099,0.3327 0.6232,0.7312 0.2941,1.034 -0.0629,2.5199 0.2733,3.2363 0.0838,0.1785 0.1444,0.253 0.3328,0.2666 0.5631,0.0404 0.6757,0.046 1.03,0.0374 0.2964,-0.0072 0.3498,-0.1204 0.456,-0.408 0.2926,-0.7924 0.1304,-1.8941 0.2758,-2.7638 0.1079,-0.6461 0.3007,-1.0718 1.1197,-1.2623 1.1247,-0.2612 2.11,0.2243 3.2185,0.254l0 0.3454c-0.9621,0.1828 -0.9348,1.2713 -2.12,1.3364 -0.5121,0.0281 -1.0263,0.0167 -1.4955,0.1579 -0.3675,0.1106 -0.4074,0.2536 -0.487,0.6289 -0.1186,0.5591 -0.0748,1.1813 -0.2018,1.7613 -0.0294,0.1339 -0.0678,0.2655 -0.1194,0.3936 -0.1173,0.1327 -0.2278,0.259 -0.3288,0.3806 -0.3607,0.4344 -0.5989,0.8083 -0.5835,1.1978 0.0452,1.1391 1.6416,1.6926 2.4466,1.3167 0.6986,-0.3263 1.3504,-0.6815 1.8981,-1.1718 0.5809,-0.5201 1.0615,-1.0515 1.359,-1.6868 0.2625,-0.5605 0.3697,-1.2104 0.4593,-1.8846 0.0891,-0.6698 0.0882,-1.3245 -0.007,-2.0163 -0.0979,-0.7112 -0.3515,-1.3749 -0.4471,-2.0806 -0.0967,-0.7128 -0.1349,-1.412 -0.1573,-2.1298 -0.0078,-0.2504 0.0285,-0.4822 -0.0581,-0.653 -0.1773,-0.3496 -0.6015,-0.5171 -1.0943,-0.5818 -0.6561,-0.086 -0.9066,0.2531 -1.3928,0.9416 -0.3227,0.4569 -0.5401,0.6183 -1.1116,0.4392 -0.4375,-0.1371 -0.8416,-0.2304 -1.2404,-0.2858 -0.1213,-0.0167 -0.1101,0.0033 -0.1676,0.1054zm2.8044 3.8967c0.0272,0.058 0.0423,0.1227 0.0423,0.191 0,0.249 -0.2019,0.451 -0.4509,0.451 -0.2491,0 -0.451,-0.202 -0.451,-0.451 0,-0.0648 0.0137,-0.1264 0.0383,-0.182 -0.0919,0.0058 -0.1816,0.0124 -0.2678,0.0189 -0.2542,0.0192 -0.4635,0.1145 -0.3011,0.5047 0.1584,0.3807 0.5752,0.5071 0.9385,0.5083 0.4468,0.0015 1.0358,-0.191 1.0067,-0.9484 -0.1719,-0.0511 -0.3605,-0.0792 -0.555,-0.0925zm-5.9779 -0.0582c0.0042,0.0245 0.0063,0.0496 0.0063,0.0753 0,0.2491 -0.202,0.451 -0.451,0.451 -0.249,0 -0.451,-0.2019 -0.451,-0.451 0,-0.0433 0.0062,-0.0851 0.0176,-0.1247 -0.278,-0.0031 -0.4942,0.0092 -0.5209,0.042 0.0499,0.5784 0.2382,0.9099 0.8811,0.9726 0.3286,0.0321 0.859,-0.02 1.0314,-0.4434 0.0957,-0.2353 0.0353,-0.4428 -0.2705,-0.491 -0.0716,-0.0112 -0.154,-0.0216 -0.243,-0.0308zm19.567 2.4344c0.7045,0 1.2758,0.5713 1.2758,1.2758 0,0.7044 -0.5713,1.2758 -1.2758,1.2758 -0.7044,0 -1.2758,-0.5714 -1.2758,-1.2758 0,-0.7045 0.5714,-1.2758 1.2758,-1.2758zm1.8428 2.1769c0.7045,0 1.2758,0.5713 1.2758,1.2758 0,0.7045 -0.5713,1.2758 -1.2758,1.2758 -0.7044,0 -1.2758,-0.5713 -1.2758,-1.2758 0,-0.7045 0.5714,-1.2758 1.2758,-1.2758zm1.7213 2.2883c0.7045,0 1.2758,0.5714 1.2758,1.2758 0,0.7045 -0.5713,1.2758 -1.2758,1.2758 -0.7044,0 -1.2757,-0.5713 -1.2757,-1.2758 0,-0.7044 0.5713,-1.2758 1.2757,-1.2758zm1.529 2.4403c0.7045,0 1.2758,0.5713 1.2758,1.2757 0,0.7045 -0.5713,1.2758 -1.2758,1.2758 -0.7045,0 -1.2758,-0.5713 -1.2758,-1.2758 0,-0.7044 0.5713,-1.2757 1.2758,-1.2757zm1.2555 2.673c0.7045,0 1.2758,0.5714 1.2758,1.2758 0,0.7045 -0.5713,1.2758 -1.2758,1.2758 -0.7045,0 -1.2758,-0.5713 -1.2758,-1.2758 0,-0.7044 0.5713,-1.2758 1.2758,-1.2758zm3.5143 -17.8419c0.1089,-0.8763 -0.0609,-1.7907 -0.6911,-2.4817 1.1793,-0.172 1.8351,0.8407 1.5265,1.6798 -0.1597,0.3041 -0.4171,0.5257 -0.8354,0.8019zm-2.7487 2.0276c0.6072,-0.8654 0.912,-1.898 0.8404,-2.9524 -0.0318,-0.4687 -0.1836,-0.9505 -0.5139,-1.4602l-0.1771 -0.1741 0.1896 -0.0132c1.6396,-0.0541 2.2972,1.9393 1.6064,3.2502 -0.5696,0.4272 -1.2521,0.9246 -1.9454,1.3497zm-14.0151 7.8436c0.402,-0.4795 2.8059,-2.1836 5.5815,-3.8659 1.3223,-0.8014 2.7711,-1.55 4.0696,-2.2938 0.7313,-0.4189 2.4542,-1.4181 3.2625,-2.5982 0.556,-0.8117 0.6307,-1.9036 0.3708,-2.3572 -0.3765,-0.657 -1.3569,-1.0583 -1.8177,-0.1583 -0.1195,0.2334 -0.0603,0.5283 0.0027,0.8494 0.0272,0.139 0.1254,0.2917 0.0424,0.4234 -0.0703,0.1114 -0.2218,0.1928 -0.5198,0.0076 -0.4167,-0.259 -0.5319,-0.6788 -0.5032,-1.1601 0.1104,-1.8456 3.4086,-2.2693 3.7945,0.2286 0.0435,0.9564 -0.109,1.6606 -0.4,2.2319 -0.6899,1.3548 -2.1827,2.2146 -3.4693,2.9259 -3.3205,1.8361 -6.6123,3.7121 -9.6265,6.0243 -0.3029,-0.0225 -0.6069,-0.1466 -0.7875,-0.2576zm-10.249 4.2735c-0.5937,0.0121 -1.48,-0.4106 -1.0748,-0.9172 0.2493,-0.3116 0.72,-0.4188 1.0995,-0.4145 0.4158,0.0048 0.8546,0.1524 1.0611,0.5446 0.3279,0.6228 -0.7014,0.7792 -1.0858,0.7871zm21.1211 8.4791c0.6087,-0.621 1.4386,-1.0197 2.1815,-1.454 0.5537,-0.3237 1.4315,-0.8311 2.936,-1.6775 6.9344,-3.4704 12.5843,-5.9444 16.6257,-11.5491 -0.7406,2.6501 -3.1128,4.6804 -5.7049,6.5606 -4.5699,3.3149 -10.0993,4.9916 -15.4516,8.67 -0.2049,-0.1979 -0.3848,-0.3745 -0.5867,-0.55zm-7.5344 2.5772c-2.3755,-1.8929 -4.4313,-3.0939 -7.4357,-0.7474 -0.2285,0.1784 -0.4626,0.3784 -0.6852,0.6105 -1.1091,-5.3813 1.5756,-10.7505 5.3695,-14.0592 1.8771,-1.6369 3.9125,-2.9396 6.0894,-4.1514 6.2056,-3.4546 14.4307,-7.292 13.3205,-12.1966 -0.0861,-0.3802 -0.2694,-0.7262 -0.5799,-1.0149 -0.3589,-0.3337 -0.8666,-0.61 -1.3688,-0.5921 -0.851,0.0304 -1.8517,0.7196 -1.1923,1.8185 0.5701,0.4619 0.3828,0.7532 -0.2872,0.7532 -0.6309,-0.3144 -0.8449,-0.7255 -0.8463,-1.1836 -0.0034,-1.0894 0.5826,-1.9745 1.6583,-2.1997 1.3112,-0.2746 2.3594,0.0386 3.0916,1.2535 0.5436,0.9021 0.463,1.7604 0.3358,2.6452 -0.2607,1.8116 -1.4902,3.5981 -3.3716,5.1443 -3.076,2.5281 -7.2732,4.5184 -9.1043,5.4935 -6.2374,3.3216 -12.4382,7.899 -12.194,15.8058 2.2498,-0.6367 4.8358,-1.4797 9.4867,3.1967 0.2504,-0.3524 0.4001,-0.5972 1.0044,-1.3033 0.909,-1.062 2.029,-1.9922 3.248,-1.6965 0.9932,0.2408 1.4801,0.8992 1.4716,1.9072 -0.0073,0.8693 -0.4182,1.7127 -1.229,1.575 -0.1879,-0.0318 -0.4778,-0.084 -0.5067,-0.3017 -0.0343,-0.2587 0.3328,-0.3986 0.4411,-0.4848 0.0674,-0.0537 0.1273,-0.1019 0.179,-0.153 0.4301,-0.4247 0.2292,-0.9712 -0.156,-1.3294 -0.188,-0.1749 -0.3974,-0.2608 -0.6363,-0.2707 -0.5238,-0.0217 -1.0256,0.2623 -1.4207,0.5814 -0.459,0.3708 -0.6663,0.678 -1.149,1.493 -0.2833,0.4783 -0.5762,0.8877 -0.805,1.3944 -1.1263,-0.5582 -1.8142,-1.2598 -2.7279,-1.9879zm-27.9697 13.8092c-0.6104,-1.2334 -0.043,-2.5262 0.6103,-3.5932 0.5308,-0.867 1.0968,-1.7512 1.6955,-2.575 0.493,-0.6786 1.0545,-1.3078 1.6429,-1.9114 0.4554,-0.467 0.927,-0.9192 1.3958,-1.3669 0.2094,-0.2001 0.4207,-0.3966 0.6336,-0.588 1.4043,-1.2629 2.8682,-2.3617 4.0905,-3.7646 0.5556,-0.6376 1.0687,-1.3386 1.4875,-2.0187 0.0455,0.0975 0.0889,0.1909 0.1332,0.2916 0.4819,1.0965 1.154,2.0615 1.978,2.9418 1.3318,1.4228 2.705,2.4508 4.6442,2.8628 0,0.0957 0,0.1914 0,0.2913 -1.1277,0.6034 -1.3941,0.799 -1.6188,2.0225 -1.3319,0.3417 -2.7166,0.4992 -4.1072,0.5871 -0.9525,0.0601 -1.9158,0.0558 -2.8697,0.1324 -0.9842,0.079 -1.8666,0.129 -2.8091,0.5403 -0.9173,0.4004 -1.6189,1.0521 -1.686,1.6153 -0.0459,0.3855 0.1529,0.866 -0.0597,1.4612 -0.3612,0.3496 -0.6735,0.3547 -0.7948,0.5036 -0.1213,0.1488 -0.0515,0.4415 -0.2641,0.921 -0.1049,0.2367 -0.2583,0.4055 -0.5437,0.4751 -0.2575,0.0628 -0.3454,0.0367 -0.5477,-0.1162 -0.2748,-0.2075 -0.4846,-0.4306 -0.6254,-0.7165 -0.0893,-0.1813 -0.1008,-0.3129 -0.1325,-0.5007 -0.0097,-0.0577 -0.0427,-0.1045 -0.1538,-0.1263 -0.1004,-0.0197 -0.2211,0.119 -0.2729,0.1958 -0.3816,0.566 0.6567,1.4598 1.1429,1.8689 0.0683,0.0574 0.1611,0.1122 0.1609,0.2125 -0.0004,0.1947 -0.1045,0.248 -0.2653,0.2937 -0.9172,0.261 -1.5983,-0.3879 -1.7905,-1.268 -0.0428,-0.1961 -0.0603,-0.3838 -0.3156,-0.3033 -0.1389,0.0438 -0.1989,0.197 -0.2063,0.3871 -0.0208,0.5349 0.5978,1.2817 1.138,1.7134 0.3441,0.275 0.466,0.1056 0.8532,0.2552 0.0114,0.1712 0.0465,0.1786 -0.1101,0.2559 -0.3542,0.1748 -0.5774,0.2358 -0.9489,0.2665 -0.3017,0.025 -0.4418,-0.1374 -0.6609,-0.3264 -0.3381,-0.2915 -0.7065,-0.6835 -0.8235,-0.9198zm17.9079 -10.3833c-3.1811,-1.3906 -5.3771,-4.0659 -6.1077,-7.3643 -0.2158,-0.9743 -0.2069,-1.8794 -0.2318,-2.867 -0.0329,-1.308 -0.1722,-2.4689 -0.4225,-3.7438 -0.0863,-0.4393 -0.2522,-1.2287 -0.4118,-1.9138 1.0284,0.8866 1.9354,1.8258 3.5402,1.7524 0.7465,-0.0342 1.5044,-0.2838 2.3222,-0.6156 1.4698,-0.5964 3.3895,-1.6247 4.1268,-3.1059 0.1076,-0.2163 0.2164,-0.4411 0.3122,-0.6632 0.3008,-0.6973 0.4088,-1.5694 0.5355,-2.316 0.1221,0.1597 0.2347,0.3114 0.3365,0.486 0.3761,0.645 0.6811,1.0957 1.2544,1.5979 0.3187,0.2792 0.5759,0.5503 1.4555,0.9432 -2.6597,2.7653 -4.8206,5.9801 -5.3201,9.8362 -0.2331,1.7995 -0.1966,3.5993 0.0838,5.4561 -0.0292,0.9447 -0.0583,1.8894 -0.0874,2.834 -0.5073,0 -0.9226,-0.1137 -1.3858,-0.3162zm43.4049 15.1147c-0.1494,-0.0373 -0.2414,-0.1873 -0.3621,-0.2788 -0.0062,-0.283 0.0209,-0.5108 0.0937,-0.7236 0.0728,-0.2128 0.1914,-0.4104 0.3683,-0.6331 0.1831,-0.0353 0.2746,-0.053 0.336,-0.0712 0.1783,-0.0529 0.2068,-0.2475 0.155,-0.3366 -0.0372,-0.0641 -0.1833,-0.0734 -0.3246,-0.0897 -1.295,-0.1496 -0.8737,2.7719 -1.8797,1.6885 -0.3807,-0.4099 -0.1176,-0.9896 0.0677,-1.4871 0.1489,-0.4 0.2899,-0.3093 0.6741,-0.5123 0.2316,-0.1224 -0.0031,-0.3225 -0.1389,-0.3837 -0.4055,-0.1825 -0.742,0.2496 -0.9801,0.7159 -0.2141,0.4194 -0.3234,0.7385 -0.3681,1.1895 -0.0429,0.4332 -0.1631,0.5427 -0.4305,0.1749 -0.2889,-0.3975 -0.2285,-0.8576 -0.0736,-1.3336 0.1433,-0.4403 0.2415,-0.9179 0.6511,-1.1718 0.9588,-0.5943 1.7907,0.5644 2.7901,0.5644 0.2731,-0.29 0.3365,-0.865 0.261,-1.5305 -0.136,-1.198 -0.4681,-2.2291 -1.1085,-3.0525 -0.6016,-0.7735 -1.4845,-1.3599 -2.4512,-1.8481 -1.985,-1.0025 -4.1743,-1.7409 -6.0055,-2.9492 -0.9718,-0.6413 -1.6651,-1.2036 -2.2676,-2.067 -0.3023,-0.4333 -0.525,-1.0101 -0.7357,-1.5677 -0.1262,-0.334 -0.252,-0.6676 -0.3768,-1.0011 -0.6431,-0.3891 -1.3915,-0.5575 -2.1618,-0.6277 -1.3429,-0.1224 -2.6298,-0.0648 -3.9396,0.2386 -1.6986,0.3934 -3.0852,1.0862 -4.7849,1.5327 -1.0403,0.2733 -2.1466,0.4371 -3.2137,0.4371 -1.4224,0 -2.706,-0.3371 -4.2968,-0.0255 0.3037,-1.0857 0.5895,-1.8074 1.1085,-2.6684 0.125,-0.2072 0.6716,-1.0186 1.3145,-1.4583 0.5674,-0.388 1.2247,-0.4467 1.3178,0.2916 0.0279,0.2212 -0.2335,0.3531 -0.4826,0.5205 -0.5193,0.3486 -0.519,0.9076 0.022,1.2879 0.9277,0.6525 1.7987,-0.0318 2.1536,-0.7595 0.3779,-0.7746 0.3594,-1.5331 0.2082,-2.1673 0.1255,-0.0958 0.2515,-0.1902 0.3781,-0.2831 5.2737,-3.873 11.4814,-5.2806 17.0293,-9.8145 1.5798,0 3.1317,0.4193 4.5853,1.0404 1.5628,0.6678 3.2061,2.4357 4.1986,3.6532 0.9641,1.1827 2.7166,3.0064 4.2943,3.3942 0.7042,0.1731 1.3233,0.0522 1.8756,-0.4863 0.2866,-0.2794 0.4637,-0.713 0.549,-1.1256 0.1992,-0.9641 -0.0421,-1.5596 -0.6472,-2.3281 -0.8797,-1.1174 -2.1908,-1.8581 -3.5275,-2.5159 -0.8268,-0.4068 -1.874,-0.7545 -2.5821,-1.3445 -1.2172,-1.0141 -2.1727,-2.1812 -2.155,-3.5791 0.0085,-0.6639 0.2192,-1.4678 0.7073,-1.9407 1.2781,-1.2382 2.7765,-0.9853 4.4737,-0.704 0.2211,-0.4162 0.4003,-0.7811 0.6865,-1.0461 0.46,-0.426 0.9841,-0.4535 1.505,-0.1029 0.8267,0.5566 1.1787,1.8379 2.5067,1.9603 0.2691,1.4303 -0.9881,2.6402 -2.2027,2.9176 -0.7321,0.1673 -1.4795,0.0509 -2.0672,-0.4354 -0.5432,-0.4495 -0.519,-0.8026 -0.6359,-1.4523 -1.6003,-0.8732 -2.7913,-0.0149 -2.5537,1.3056 0.2127,1.1821 1.2014,1.5799 2.2154,2.0101 0.8915,0.3782 1.7313,0.6944 2.5361,1.0462 1.2555,0.5488 2.4259,1.1841 3.5748,2.276 1.5481,1.8394 1.7228,4.2156 0.6075,6.3297 -1.2817,1.727 -2.8215,2.397 -4.9397,2.397 -1.9767,-0.258 -3.5526,-1.1917 -5.0923,-2.4276 -0.0628,-0.5867 -0.0903,-0.8496 -0.1432,-1.4099 -0.1234,-1.3075 -0.4173,-2.4261 -1.0731,-3.5477 -0.4665,-0.798 -0.9337,-1.4285 -2.0579,-1.8696 0.4458,0.7298 0.8983,1.2909 1.3002,1.97 0.6113,1.0329 0.9205,2.3536 1.0068,3.4963 0.2397,3.1719 -0.2662,6.4822 1.5926,9.2027 0.875,1.2807 2.5675,2.2205 3.8302,3.0837 0.8656,0.4619 0.8656,0.4619 0.9946,0.5868 0.0604,2.6654 -0.7429,6.3969 -2.0641,8.6893 -0.3179,0.3916 -0.5416,0.777 -1.0696,0.953 -1.0653,0 -1.0778,-0.4495 -2.139,0.1748 -0.2122,0.0083 -0.4305,0.0807 -0.6367,0.0291zm4.9831 -33.5278c-0.2131,-0.3185 -0.1971,-0.899 0.1337,-1.1293 0.3453,-0.2405 0.6473,-0.1012 0.8907,0.1721 0.2708,0.3042 0.2517,0.5417 0.687,0.6287 0.3318,0.0662 0.6731,0.0059 1.0085,0.0271 0.0933,0.0059 0.0761,0.1682 0.0586,0.2255 -0.0405,0.1325 -0.3999,0.4026 -0.5247,0.4557 -0.7497,0.319 -1.7409,0.3868 -2.2538,-0.3798zm1.5423 -1.4102c-0.2142,-0.2442 -0.3492,-0.5734 -0.6919,-0.5653 -0.3425,0.0081 -0.4971,-0.0799 -0.5183,-0.4179 -0.0364,-0.5806 0.3889,-0.8265 0.9399,-0.7005 0.3988,0.0912 0.6019,0.561 0.843,0.8851 0.2668,0.3587 0.5542,0.5235 1.1251,0.7505 0.143,0.0568 0.0935,0.2444 0,0.3163 -0.1268,0.0974 -0.2774,0.1158 -0.4069,0.16 -0.5776,0.1973 -0.8861,0.0332 -1.2909,-0.4282zm-38.4557 0.6529c3.595,3.7951 6.4142,7.8639 7.6869,11.5881 -0.2757,0.1594 -0.5531,0.3206 -0.7933,0.4617 -0.0293,0.0173 -0.0581,0.0345 -0.0863,0.0517 -1.2775,-3.7079 -4.0832,-7.7548 -7.6579,-11.5314 0.2807,-0.1932 0.5649,-0.3832 0.8506,-0.5701zm3.6311 -2.1591c3.6207,3.8118 6.4616,7.9031 7.7398,11.6461 -0.2602,0.1375 -0.7302,0.3671 -1.0254,0.5167 -1.2483,-3.736 -4.0668,-7.8264 -7.6724,-11.6433 0.3244,-0.1801 0.6453,-0.3522 0.958,-0.5195zm2.0725 1.5548c-0.5244,-0.608 -1.0711,-1.2116 -1.6368,-1.8084 1.9195,-1.0812 5.9111,-3.0037 8.9634,-5.4293 1.8558,-1.4747 3.0861,-3.3155 3.5708,-5.0861 0.3769,-1.3772 0.4128,-2.6409 -0.7676,-4.1153 -0.7686,-0.6274 -1.5666,-0.9261 -2.5626,-0.8445 0.4031,-0.7699 1.0204,-1.0938 1.838,-1.145 3.5122,-0.2199 5.1918,4.5676 3.2062,8.5329 -2.3937,4.7804 -8.0229,7.6334 -12.6114,9.8957zm1.8297 2.2596c-0.4768,-0.6303 -0.9809,-1.259 -1.5087,-1.8837 2.7019,-1.4646 4.5503,-2.4074 6.296,-3.4939 1.4463,-0.9003 2.8309,-1.8661 4.4939,-3.6074 4.4883,-4.6999 3.5995,-11.0744 -0.6611,-12.4404 0.3507,-0.2643 0.6808,-0.3831 1.0487,-0.4058 2.3834,-0.1476 4.1611,1.6498 4.7771,4.1654 1.2037,4.9155 -1.7664,9.3046 -5.3926,12.2516 -3.3344,2.7098 -7.2921,4.5589 -9.0533,5.4142zm1.6908 2.4289c-0.4108,-0.6383 -0.9214,-1.391 -1.3927,-2.0301 4.9697,-2.6313 10.1064,-5.0447 13.2624,-9.9245 2.6722,-4.1317 2.3735,-10.0225 -1.4944,-12.5712 3.1219,-0.5345 4.6746,1.9128 5.4011,4.2006 1.0831,3.411 0.003,7.5958 -2.8345,11.2374 -3.0706,3.9406 -8.1732,6.7228 -12.9419,9.0878zm1.408 2.4451c-0.3476,-0.685 -0.7385,-1.3764 -1.1681,-2.0706 3.7939,-1.7228 8.932,-4.4809 12.4061,-8.2589 3.8158,-4.1497 5.7148,-10.3115 2.7013,-15.0696 1.3787,0.0952 2.5232,2.2467 2.9976,3.0416 0.1914,0.5951 0.3829,1.1902 0.5784,1.7894 0.6025,10.8411 -8.8039,16.7151 -17.5153,20.5681zm1.1612 2.7327c-0.253,-0.7509 -0.5692,-1.5159 -0.9422,-2.2901 8.3959,-3.8112 18.2324,-9.7279 17.8759,-20.1026 0.8287,1.4831 1.0944,2.9677 1.0453,4.4342 -0.0594,1.7717 -0.5977,3.3674 -1.2212,5.0075 -4.0798,7.0216 -9.5473,9.3259 -16.1224,12.6099 -0.2021,0.101 -0.4265,0.2364 -0.6354,0.3411zm-13.4287 2.2455c0.1452,-0.2081 0.2574,-0.4032 0.2915,-0.6711 0.044,-0.3446 -0.0653,-0.7533 -0.2868,-1.0577 -0.46,-0.6322 -1.4654,-0.5502 -1.9323,0.0404l-0.1973 0.345c0.5294,0.2708 0.8872,0.856 0.9429,1.4393 0.0044,0.0459 0.0072,0.092 0.0084,0.1383 0.0852,-0.0451 0.1787,-0.0863 0.2959,-0.1351 0.2888,-0.1203 0.5928,-0.1524 0.8777,-0.0991zm2.821 1.2271c0.0617,-0.6887 -0.3802,-1.4268 -1.1231,-1.4672 -0.4813,-0.0261 -0.8065,0.2056 -1.1405,0.4756 0.1219,0.0864 0.2329,0.1939 0.3285,0.3223 0.2807,0.3771 0.3882,0.8773 0.3175,1.3412 0.0332,-0.0149 0.0671,-0.0286 0.1018,-0.0408 0.4189,-0.1467 0.8639,-0.1024 1.239,0.0946 0.1644,-0.1034 0.26,-0.5376 0.2768,-0.7257zm-0.8685 -6.4736c0.3255,-0.2607 0.6612,-0.4944 0.726,-0.9377 0.0734,-0.5009 -0.1931,-1.0589 -0.6515,-1.2871 -0.2926,-0.1456 -0.5383,-0.1185 -0.8054,-0.0507 -0.3523,0.0894 -0.5757,0.3218 -0.8332,0.5599 0.0324,0.0537 0.0615,0.1102 0.0869,0.1695 0.1676,0.3911 0.1466,0.8249 0.0036,1.2187 0.5081,-0.132 1.064,0.0045 1.4736,0.3274zm1.8009 1.9824c0.2735,-0.2162 0.5391,-0.4264 0.5934,-0.7985 0.0665,-0.455 -0.1754,-0.9624 -0.5919,-1.1698 -0.4979,-0.2479 -1.0861,-0.0111 -1.4901,0.3086 0.0768,0.1051 0.1412,0.2201 0.1901,0.344 0.1779,0.4508 0.131,0.8303 0.0083,1.2153 0.4254,-0.1501 0.9018,-0.106 1.2902,0.1004zm0.9908 2.6515c0.3307,-0.207 0.7082,-0.4269 0.8966,-0.7602 0.3048,-0.5393 0.0186,-1.3166 -0.5217,-1.5851 -0.3487,-0.1733 -0.6295,-0.0925 -0.964,0.0027 0.1198,0.1303 0.2172,0.2846 0.2832,0.4607 0.2205,0.589 0.0432,1.0655 -0.1691,1.5844 0.1709,0.071 0.3314,0.1709 0.475,0.2975zm-5.2193 -4.3242c0.1677,-0.2229 0.3682,-0.451 0.4842,-0.7055 0.1093,-0.2397 0.1702,-0.4896 0.1174,-0.7719 -0.1064,-0.5681 -0.7149,-0.8945 -1.2592,-0.8223 -0.5816,0.0771 -0.9178,0.5908 -1.2672,1.0214 0.024,0.0301 0.047,0.0612 0.0689,0.0933 0.2771,0.4054 0.3143,0.7853 0.2924,1.2013 0.3804,-0.196 0.8189,-0.2597 1.2372,-0.1476 0.0283,0.0076 0.3246,0.1433 0.3263,0.1313zm2.2201 2.0423c0.0877,-0.1194 0.1672,-0.2581 0.2072,-0.3714 0.211,-0.5979 0.3124,-1.2136 -0.3349,-1.6747 -0.2628,-0.1871 -0.6114,-0.2941 -0.9266,-0.2276 -0.3447,0.0726 -0.5377,0.2792 -0.7405,0.5461 0.2718,0.2871 0.4593,0.6943 0.4839,1.1129 0.0115,0.1943 -0.0053,0.3903 -0.0451,0.5813 0.4385,-0.1932 0.9304,-0.1589 1.356,0.0334zm1.0341 2.1179c0.1897,-0.113 0.3877,-0.2068 0.6105,-0.2408 0.1513,-0.0231 0.3027,-0.0249 0.4508,-0.0065 0.1575,-0.3513 0.2969,-0.6837 0.2376,-1.0885 -0.086,-0.5864 -0.6614,-0.9677 -1.2355,-0.8853 -0.1438,0.0207 -0.2851,0.067 -0.4106,0.1401 -0.1008,0.0586 -0.1846,0.1396 -0.2672,0.2222 0.199,0.1613 0.3657,0.3625 0.4804,0.5924 0.2278,0.457 0.2166,0.8483 0.134,1.2664zm-3.0264 -1.7214c0.1207,-0.3345 0.2664,-0.6618 0.2292,-1.0236 -0.0447,-0.4347 -0.2838,-0.8379 -0.6935,-1.0361 -0.414,-0.2002 -0.9103,-0.1389 -1.2801,0.1289 -0.27,0.1956 -0.4448,0.4408 -0.5987,0.7281 0.1303,0.1009 0.2467,0.2226 0.3433,0.3638 0.2355,0.3447 0.2976,0.671 0.2976,1.0167 0.2263,-0.1642 0.5063,-0.2618 0.873,-0.2839 0.2346,-0.0141 0.6035,0.0071 0.8292,0.1061zm2.5217 1.9475c0.0822,-0.3052 0.1628,-0.5936 0.094,-0.918 -0.1255,-0.5914 -0.609,-1.0813 -1.2427,-1.1342 -0.2189,-0.0182 -0.4458,0.0208 -0.6397,0.1271 -0.1198,0.0657 -0.2149,0.1653 -0.3127,0.2612 0.3604,0.3406 0.57,0.8475 0.5773,1.3369 0.002,0.1394 -0.0108,0.2791 -0.0394,0.4155 0.2652,-0.1435 0.5625,-0.2252 0.9208,-0.2231 0.2199,0.0013 0.438,0.0446 0.6424,0.1346zm2.4397 2.2453c0.103,-0.1823 0.1998,-0.3633 0.2283,-0.5764 0.0593,-0.4425 -0.0753,-0.9283 -0.365,-1.2689 -0.0119,-0.0092 -0.023,-0.0196 -0.0332,-0.0313 -0.0081,-0.0094 -0.0153,-0.0193 -0.0216,-0.0296 -0.1486,-0.1552 -0.3327,-0.274 -0.5479,-0.3354 -0.4984,-0.1422 -0.9587,0.0605 -1.2271,0.319 0.3364,0.3321 0.5231,0.8041 0.5287,1.2762 0.0019,0.1681 -0.0164,0.3367 -0.0539,0.5007 0.4995,-0.1726 1.0473,-0.1203 1.4917,0.1457zm-6.3131 -10.7939c0.0515,0.0745 0.0965,0.155 0.1336,0.2415 0.1699,0.3966 0.1459,0.8372 -0.0025,1.2353 0.5365,-0.1593 1.1549,-0.0391 1.5736,0.325 0.3406,-0.2635 0.6903,-0.5083 0.7389,-0.9718 0.0555,-0.5298 -0.2415,-1.0878 -0.7358,-1.3033 -0.2262,-0.0985 -0.4767,-0.1306 -0.7215,-0.1053l-0.4438 0.1111c-0.0544,0.0445 -0.1084,0.0891 -0.1621,0.1339 -0.13,0.1086 -0.2567,0.2202 -0.3804,0.3336zm-2.1762 2.2689c0.3723,-0.0201 0.7497,0.0896 1.0571,0.3117l0.2612 -0.3024c0.2806,-0.4268 0.7449,-1.1159 0.6426,-1.6582 -0.021,-0.1115 -0.0614,-0.2136 -0.1167,-0.3053 -0.3884,0.3791 -0.7484,0.766 -1.0939,1.1191 -0.2647,0.2706 -0.5148,0.5489 -0.7503,0.8351zm-1.5114 2.3392c0.3272,0.1805 0.5911,0.4697 0.691,0.8204 0.1135,-0.1071 0.2421,-0.1987 0.4065,-0.265 0.396,-0.1598 0.8417,-0.1448 1.2303,0.0195 0.3438,-0.532 0.6628,-0.9379 0.4211,-1.6156 -0.1864,-0.5227 -0.6744,-0.9196 -1.265,-0.8519 -0.1492,0.0171 -0.2949,0.0644 -0.4255,0.1384 -0.4042,0.5557 -0.7572,1.1398 -1.0584,1.7542zm-0.9823 2.8616c0.0761,-0.0417 0.1598,-0.0813 0.2569,-0.1167 0.1569,-0.0574 0.3188,-0.0921 0.4805,-0.1018l0.4344 -1.1851c0.1574,-0.4296 0.0783,-0.7516 -0.3435,-1.0206 -0.0128,-0.0082 -0.0258,-0.0161 -0.039,-0.0238 -0.341,0.7691 -0.6043,1.584 -0.7893,2.448zm1.7032 2.3874c0.006,-0.0348 0.0203,-0.0686 0.0433,-0.0985 0.0598,-0.1132 0.1297,-0.2225 0.1607,-0.3467 0.151,-0.6043 -0.1308,-1.4696 -0.7754,-1.6722 -0.4703,-0.1479 -0.8667,0.0909 -1.2466,0.3316 -0.1133,0.6731 -0.1814,1.3748 -0.2041,2.1066 0.7419,-0.1846 1.4093,-0.2888 2.0221,-0.3208zm2.6288 0.3777c0.0978,-0.1506 0.205,-0.2968 0.2589,-0.4677 0.2177,-0.6912 -0.2299,-1.649 -1.0094,-1.7191 -0.2621,-0.0236 -0.5236,0.0603 -0.732,0.2183 -0.1946,0.1475 -0.3249,0.3336 -0.4773,0.5064 0.0085,0.0577 0.0146,0.1153 0.0183,0.1725 0.023,0.3589 -0.0532,0.6133 -0.193,0.9016 0.7849,0.0095 1.4808,0.1452 2.1345,0.388zm2.3632 1.3865l0.2248 -0.3214c0.2753,-0.6032 0.0789,-1.5402 -0.6317,-1.7421 -0.2418,-0.0686 -0.5039,-0.0448 -0.7314,0.0576 -0.502,0.2259 -0.5487,0.4072 -0.7887,0.7992 0.6585,0.2998 1.2836,0.7093 1.927,1.2067zm2.5619 0.9033c-0.0122,-0.5086 -0.346,-1.0104 -0.8468,-1.161 -0.2251,-0.0677 -0.4634,-0.0433 -0.6906,0.0184 -0.3276,0.0889 -0.4852,0.2911 -0.6669,0.5229 0.5189,0.421 1.0554,0.895 1.636,1.4118 0.1814,-0.2735 0.3707,-0.5393 0.5683,-0.7921zm1.4033 -1.3988c-0.0917,-0.0465 -0.1896,-0.0818 -0.2923,-0.1034 -0.4811,-0.1015 -0.8124,0.0794 -1.1719,0.309 0.0324,0.0318 0.0637,0.0651 0.0937,0.0999 0.1586,0.184 0.2774,0.4031 0.3471,0.6365 0.3203,-0.3604 0.6609,-0.6814 1.0234,-0.942zm2.4522 -0.6747c0.0311,-0.0452 0.0582,-0.0933 0.08,-0.1448 0.2059,-0.4867 0.1145,-1.0877 -0.271,-1.4673 -0.19,-0.1871 -0.4382,-0.3061 -0.7017,-0.345 -0.4298,-0.002 -0.608,0.1157 -0.9122,0.3249 0.2853,0.4105 0.4164,0.9336 0.3525,1.4284 -0.0166,0.1283 -0.0448,0.2555 -0.085,0.3787 0.4784,-0.1809 0.99,-0.2513 1.5374,-0.1749zm-7.1807 -11.483c0.0085,0.0004 0.0171,0.0009 0.0258,0.0014 0.9663,0.0617 1.7069,0.9434 1.6023,1.9073 -0.0078,0.072 -0.0206,0.1478 -0.039,0.2237 0.1385,-0.0288 0.2809,-0.0424 0.4401,-0.0282 0.9155,0.0817 1.5635,1.0196 1.4307,1.9065 -0.0213,0.1421 -0.0595,0.2655 -0.1108,0.376 0.1396,-0.0317 0.2822,-0.0478 0.4433,-0.0334 0.8544,0.0763 1.4599,0.9509 1.3358,1.7791 -0.025,0.1666 -0.0784,0.3351 -0.1626,0.4845 0.0541,-0.0018 0.1098,-0.0004 0.1678,0.0047 0.985,0.0868 1.6447,1.1893 1.3409,2.1113 -0.0423,0.1284 -0.1021,0.2433 -0.1748,0.3479 0.1099,0.0105 0.2205,0.0305 0.3355,0.0667 0.83,0.2611 1.3088,1.144 1.1557,1.9864 -0.032,0.1761 -0.0832,0.3206 -0.1504,0.4461l0.0079 0.0021c0.2098,-0.1986 0.4934,-0.4158 0.725,-0.5856 -1.2815,-3.7049 -4.0866,-7.7469 -7.6583,-11.5189 -0.2421,0.1716 -0.4809,0.3457 -0.7149,0.5224zm-2.2382 8.6428c0.1763,-0.3704 0.2533,-0.9635 0.0861,-1.3478 -0.2078,-0.4778 -0.6732,-0.8265 -1.2298,-0.7628 -0.2773,0.0318 -0.5062,0.1831 -0.7031,0.3694 -0.3455,0.3272 -0.481,0.9904 -0.6489,1.4253 0.1215,0.0317 0.24,0.08 0.353,0.1461 0.31,0.1812 0.5367,0.4781 0.6767,0.8117 0.1018,-0.1174 0.2037,-0.2247 0.3618,-0.3525 0.3124,-0.2524 0.7124,-0.3498 1.1042,-0.2894zm-0.8771 20.5301c0.0787,0.0397 0.4939,0.2242 0.5946,0.3422 0.1767,0.2071 0.0466,0.3159 -0.1804,0.3838 -0.4689,0.1402 -0.9812,-0.351 -1.4244,-0.5484 -1.2851,-0.3593 -1.9482,0.8324 -1.8838,1.9554 0.0228,0.398 0.1198,1.2044 0.9442,1.215 -0.2157,-0.7015 -0.2234,-2.5449 0.9358,-2.6453 0.2538,-0.022 0.2388,0.2688 0.1247,0.407 -0.6398,0.7745 -1.1635,2.1408 0.3555,2.2966 -0.0466,-0.6001 0.1002,-2.4214 1.1621,-2.0188 0.247,0.0936 0.216,0.2873 -0.0033,0.3859 -0.7125,0.3204 -0.5699,0.634 -0.5699,1.4962 0.2581,0.7824 1.308,0.142 1.5897,-0.1415 0.1086,-0.1092 0.3258,-0.0729 0.4661,0 1.7829,0.9266 2.4193,-0.6642 2.835,-2.1053 0.317,-1.0991 0.3806,-2.1705 0.4646,-3.3118 0.1678,-2.2793 0.2551,-4.5529 0.3344,-6.8473 0.0382,-1.1047 0.1007,-2.1904 0.464,-3.248 -0.3065,-0.1967 -0.5649,-0.3624 -0.8714,-0.559 -0.6662,-0.362 -1.2184,-0.9061 -1.8093,-1.3784 -1.9008,-1.5188 -3.47,-2.7084 -5.9866,-1.4519 -0.3205,0.3371 -0.7102,0.618 -0.953,1.0112 -0.5082,0.823 -0.5828,1.7425 -0.5439,2.6781 0.0607,1.4596 0.5406,2.9595 1.1806,4.201 1.0686,2.0728 2.9016,3.9056 3.3422,6.2056 0.0803,0.4195 0.183,1.2109 -0.0038,1.6973 -0.1854,-0.1163 -0.3598,-0.1988 -0.5457,-0.2533 -0.0029,0.0881 -0.012,0.1558 -0.018,0.2337z"/>
  <path class="fil1" d="M58.3316 93.9442c-0.46,-0.0378 -0.87,-0.0396 -1.2452,-0.0099 -1.1661,0.0927 -1.8725,0.5187 -2.8338,1.1105 -0.2834,0.1744 -1.2318,0.8261 -2.2125,1.1952 -0.7993,0.3009 -1.6189,0.3954 -2.0067,0.0596 -0.6745,-0.584 0.3563,-1.3817 0.8893,-0.605 0.0639,-1.275 -1.7097,-1.4699 -2.3528,-0.5107 -0.3197,0.4767 -0.3045,1.2066 0.1622,1.6784 -0.5369,-0.0365 -0.9828,-0.1409 -1.3712,-0.3198 -0.5772,-0.2658 -1.0705,-0.6625 -1.5701,-1.0617 -0.9908,-0.7914 -1.9811,-1.3662 -3.238,-1.618 -0.5734,-0.1148 -1.1455,-0.1685 -1.672,-0.0753 -0.4106,-0.2109 -0.7887,-0.3695 -1.1467,-0.4856 -1.1129,-0.3607 -1.9285,-0.2374 -3.0431,-0.0586 -0.3285,0.0527 -1.4542,0.2919 -2.5015,0.2576 -0.8535,-0.0279 -1.647,-0.2542 -1.8767,-0.7128 -0.3996,-0.7977 0.8579,-1.1402 1.0531,-0.2187 0.547,-1.1535 -1.0171,-2.0123 -1.9783,-1.3722 -0.4777,0.3181 -0.743,0.9983 -0.4924,1.6128 -0.482,-0.2392 -0.8541,-0.5064 -1.1444,-0.8202 -0.4315,-0.4665 -0.7355,-1.0218 -1.0444,-1.5818 -0.6125,-1.1103 -1.3075,-2.0204 -2.3723,-2.7339 -0.4857,-0.3256 -0.9938,-0.5941 -1.5159,-0.7095 -0.2986,-0.352 -0.5872,-0.6432 -0.8736,-0.8875 -0.8901,-0.7591 -1.6908,-0.9573 -2.789,-1.2186 -0.3237,-0.077 -1.4552,-0.2868 -2.4096,-0.7193 -0.778,-0.3524 -1.4244,-0.8651 -1.4611,-1.3768 -0.064,-0.8899 1.2289,-0.7251 1.0565,0.201 0.9468,-0.8564 -0.1695,-2.2483 -1.3025,-2.0248 -0.5631,0.1111 -1.0685,0.6379 -1.0721,1.3015 -0.3538,-0.4054 -0.5953,-0.7946 -0.7434,-1.1957 -0.2202,-0.5961 -0.2885,-1.2254 -0.3596,-1.861 -0.1409,-1.2601 -0.4347,-2.3669 -1.1455,-3.4336 -0.3242,-0.4867 -0.6907,-0.9292 -1.129,-1.2356 -0.1411,-0.4395 -0.2964,-0.819 -0.4675,-1.1543 -0.5318,-1.0419 -1.1957,-1.5314 -2.1103,-2.1931 -0.2696,-0.1951 -1.2347,-0.8219 -1.951,-1.5867 -0.5838,-0.6233 -0.9848,-1.3443 -0.823,-1.8311 0.2815,-0.8467 1.4129,-0.1996 0.8993,0.59 1.2024,-0.4289 0.7037,-2.1421 -0.4286,-2.3691 -0.5627,-0.1129 -1.2312,0.1804 -1.4885,0.7921 -0.1717,-0.5099 -0.2459,-0.9619 -0.2293,-1.3891 0.0247,-0.635 0.2025,-1.2426 0.38,-1.857 0.352,-1.2181 0.5041,-2.3531 0.2557,-3.6106 -0.1133,-0.5737 -0.2825,-1.1228 -0.5702,-1.5736 0.0378,-0.4601 0.0395,-0.8701 0.0098,-1.2453 -0.0926,-1.1661 -0.5187,-1.8725 -1.1105,-2.8338 -0.1743,-0.2834 -0.8261,-1.2318 -1.1952,-2.2125 -0.3008,-0.7993 -0.3954,-1.6189 -0.0596,-2.0067 0.584,-0.6745 1.3817,0.3563 0.605,0.8893 1.275,0.0639 1.4699,-1.7097 0.5107,-2.3528 -0.4767,-0.3197 -1.2065,-0.3045 -1.6784,0.1622 0.0365,-0.5369 0.1409,-0.9828 0.3198,-1.3712 0.2658,-0.5772 0.6626,-1.0705 1.0617,-1.5701 0.7913,-0.9908 1.3662,-1.9812 1.618,-3.238 0.1148,-0.5734 0.1686,-1.1455 0.0754,-1.672 0.2109,-0.4106 0.3694,-0.7887 0.4855,-1.1467 0.3607,-1.1129 0.2374,-1.9285 0.0586,-3.0431 -0.0527,-0.3285 -0.2919,-1.4542 -0.2576,-2.5015 0.0279,-0.8535 0.2542,-1.647 0.7129,-1.8767 0.7976,-0.3997 1.1401,0.8579 0.2186,1.0531 1.1535,0.547 2.0123,-1.0171 1.3722,-1.9783 -0.3181,-0.4777 -0.9982,-0.743 -1.6127,-0.4924 0.2392,-0.482 0.5063,-0.8541 0.8202,-1.1445 0.4664,-0.4314 1.0218,-0.7354 1.5817,-1.0443 1.1103,-0.6125 2.0204,-1.3075 2.7339,-2.3723 0.3256,-0.4858 0.5943,-0.9938 0.7096,-1.5159 0.352,-0.2987 0.6432,-0.5873 0.8874,-0.8736 0.7591,-0.8901 0.9573,-1.6908 1.2186,-2.789 0.0771,-0.3237 0.2868,-1.4552 0.7193,-2.4097 0.3524,-0.7779 0.8651,-1.4243 1.3768,-1.4611 0.8899,-0.0639 0.7251,1.229 -0.201,1.0566 0.8564,0.9468 2.2484,-0.1695 2.0248,-1.3025 -0.1111,-0.5631 -0.6378,-1.0684 -1.3014,-1.0721 0.4054,-0.3538 0.7945,-0.5953 1.1956,-0.7434 0.5961,-0.2202 1.2254,-0.2885 1.861,-0.3596 1.2601,-0.1409 2.3669,-0.4348 3.4337,-1.1455 0.4866,-0.3242 0.9292,-0.6907 1.2357,-1.129 0.4394,-0.1411 0.8189,-0.2964 1.1541,-0.4675 1.0419,-0.5318 1.5314,-1.1957 2.1931,-2.1103 0.1951,-0.2696 0.8219,-1.2347 1.5867,-1.951 0.6233,-0.5838 1.3443,-0.9848 1.8311,-0.823 0.8467,0.2815 0.1996,1.4129 -0.59,0.8992 0.4289,1.2025 2.1421,0.7038 2.3691,-0.4285 0.1129,-0.5627 -0.1803,-1.2312 -0.792,-1.4885 0.5099,-0.1718 0.9618,-0.246 1.3891,-0.2293 0.6349,0.0247 1.2425,0.2024 1.8569,0.38 1.2181,0.352 2.3531,0.5041 3.6106,0.2557 0.5737,-0.1133 1.1229,-0.2826 1.5737,-0.5702 0.4601,0.0378 0.87,0.0395 1.2452,0.0098 1.1661,-0.0927 1.8725,-0.5187 2.8338,-1.1105 0.2834,-0.1744 1.2318,-0.8261 2.2125,-1.1952 0.7993,-0.3009 1.6189,-0.3954 2.0067,-0.0596 0.6745,0.584 -0.3563,1.3817 -0.8893,0.605 -0.0639,1.275 1.7097,1.4699 2.3528,0.5107 0.3197,-0.4767 0.3046,-1.2066 -0.1621,-1.6784 0.5369,0.0365 0.9827,0.1409 1.3711,0.3198 0.5772,0.2658 1.0705,0.6625 1.5701,1.0617 0.9908,0.7913 1.9811,1.3662 3.238,1.618 0.5734,0.1148 1.1455,0.1686 1.6721,0.0754 0.4106,0.2109 0.7886,0.3695 1.1467,0.4855 1.1128,0.3607 1.9284,0.2374 3.043,0.0586 0.3285,-0.0527 1.4541,-0.2919 2.5015,-0.2576 0.8535,0.0279 1.647,0.2542 1.8767,0.7128 0.3996,0.7977 -0.8579,1.1402 -1.0531,0.2187 -0.547,1.1535 1.0171,2.0123 1.9783,1.3722 0.4777,-0.3181 0.743,-0.9982 0.4924,-1.6127 0.482,0.2392 0.8541,0.5063 1.1444,0.8201 0.4315,0.4665 0.7355,1.0218 1.0444,1.5818 0.6124,1.1103 1.3074,2.0204 2.3723,2.7339 0.4858,0.3256 0.9938,0.5943 1.5159,0.7096 0.2986,0.352 0.5873,0.6431 0.8736,0.8874 0.8901,0.7591 1.6908,0.9573 2.789,1.2186 0.3237,0.0771 1.4552,0.2868 2.4096,0.7193 0.778,0.3524 1.4244,0.8651 1.4611,1.3768 0.064,0.8899 -1.2289,0.7251 -1.0566,-0.201 -0.9467,0.8564 0.1696,2.2483 1.3026,2.0248 0.5631,-0.1111 1.0685,-0.6378 1.0721,-1.3015 0.3538,0.4055 0.5953,0.7946 0.7434,1.1957 0.2202,0.5961 0.2885,1.2254 0.3596,1.861 0.1409,1.2601 0.4347,2.3669 1.1455,3.4337 0.3242,0.4866 0.6907,0.9292 1.129,1.2356 0.1412,0.4395 0.2964,0.8189 0.4675,1.1542 0.5318,1.0419 1.1957,1.5314 2.1103,2.1931 0.2696,0.1951 1.2346,0.8219 1.951,1.5867 0.5838,0.6233 0.9848,1.3443 0.823,1.8311 -0.2815,0.8467 -1.4129,0.1996 -0.8993,-0.59 -1.2024,0.4289 -0.7037,2.1421 0.4286,2.3691 0.5627,0.1129 1.2312,-0.1803 1.4885,-0.792 0.1717,0.5099 0.2459,0.9618 0.2293,1.389 -0.0247,0.635 -0.2025,1.2426 -0.38,1.857 -0.352,1.2181 -0.5041,2.3531 -0.2557,3.6106 0.1133,0.5737 0.2825,1.1229 0.5702,1.5737 -0.0378,0.4601 -0.0396,0.87 -0.0098,1.2452 0.0926,1.1661 0.5187,1.8725 1.1104,2.8338 0.1744,0.2834 0.8262,1.2318 1.1953,2.2125 0.3008,0.7993 0.3954,1.6189 0.0596,2.0067 -0.584,0.6745 -1.3817,-0.3563 -0.605,-0.8893 -1.275,-0.0639 -1.4699,1.7097 -0.5107,2.3528 0.4767,0.3197 1.2065,0.3046 1.6784,-0.1621 -0.0365,0.5369 -0.1409,0.9827 -0.3198,1.3711 -0.2658,0.5772 -0.6626,1.0705 -1.0617,1.5701 -0.7913,0.9908 -1.3662,1.9812 -1.618,3.238 -0.1148,0.5734 -0.1686,1.1456 -0.0754,1.6721 -0.2109,0.4106 -0.3695,0.7886 -0.4855,1.1467 -0.3607,1.1128 -0.2374,1.9284 -0.0586,3.043 0.0527,0.3285 0.2919,1.4541 0.2576,2.5015 -0.0279,0.8535 -0.2542,1.647 -0.7128,1.8767 -0.7977,0.3997 -1.1402,-0.8579 -0.2187,-1.0531 -1.1535,-0.547 -2.0123,1.0171 -1.3722,1.9783 0.3181,0.4777 0.9982,0.7431 1.6127,0.4925 -0.2392,0.482 -0.5063,0.854 -0.8202,1.1444 -0.4664,0.4314 -1.0218,0.7354 -1.5817,1.0443 -1.1103,0.6125 -2.0204,1.3075 -2.7339,2.3723 -0.3256,0.4858 -0.5942,0.9938 -0.7096,1.516 -0.352,0.2986 -0.6432,0.5872 -0.8874,0.8735 -0.7591,0.8901 -0.9573,1.6908 -1.2186,2.789 -0.0771,0.3237 -0.2868,1.4552 -0.7193,2.4097 -0.3525,0.7779 -0.8651,1.4243 -1.3768,1.461 -0.8899,0.064 -0.7251,-1.2289 0.201,-1.0565 -0.8564,-0.9468 -2.2484,0.1695 -2.0248,1.3025 0.1111,0.5631 0.6378,1.0685 1.3015,1.0722 -0.4055,0.3538 -0.7946,0.5952 -1.1957,0.7434 -0.5961,0.2201 -1.2254,0.2884 -1.861,0.3595 -1.2601,0.141 -2.3669,0.4348 -3.4337,1.1455 -0.4866,0.3242 -0.9292,0.6908 -1.2356,1.129 -0.4395,0.1412 -0.8189,0.2964 -1.1542,0.4675 -1.0419,0.5318 -1.5314,1.1957 -2.1931,2.1104 -0.1951,0.2695 -0.8219,1.2346 -1.5867,1.9509 -0.6233,0.5838 -1.3443,0.9849 -1.8311,0.823 -0.8467,-0.2815 -0.1996,-1.4129 0.59,-0.8993 -0.4289,-1.2024 -2.1421,-0.7037 -2.3691,0.4286 -0.1129,0.5627 0.1804,1.2313 0.7921,1.4886 -0.51,0.1717 -0.9619,0.2459 -1.3891,0.2292 -0.635,-0.0247 -1.2426,-0.2024 -1.857,-0.38 -1.2181,-0.352 -2.3531,-0.5041 -3.6107,-0.2557 -0.5736,0.1133 -1.1228,0.2826 -1.5736,0.5703zm-16.1953 -88.2717c0.0947,-0.1003 0.1809,-0.2102 0.2574,-0.3307 0.4197,-0.662 0.1521,-1.4689 -0.3809,-1.8249 -0.9603,-0.6415 -2.5256,0.2152 -1.9802,1.3694 0.1965,-0.9212 1.4535,-0.577 1.0528,0.2202 -0.2304,0.4583 -1.0241,0.6835 -1.8777,0.7102 -1.0474,0.0328 -2.1727,-0.208 -2.5011,-0.2611 -1.1144,-0.1804 -1.9298,-0.3048 -3.0432,0.0543 -0.358,0.1155 -0.7362,0.2735 -1.1469,0.4838 -0.7063,0.0034 -1.3928,0.3349 -2.04,0.7673 -1.0658,0.7121 -1.7621,1.6212 -2.3761,2.7306 -0.3097,0.5596 -0.6144,1.1144 -1.0466,1.5803 -0.3177,0.3425 -0.7328,0.6291 -1.2823,0.8842 0.0491,-0.129 0.0867,-0.2635 0.1112,-0.4041 0.1344,-0.7722 -0.4216,-1.4153 -1.0502,-1.5402 -1.1327,-0.2252 -2.251,1.1653 -1.3054,2.023 -0.171,-0.9264 1.1221,-1.0894 1.0569,-0.1996 -0.0375,0.5117 -0.6846,1.0234 -1.463,1.3748 -0.9551,0.4311 -2.0869,0.6393 -2.4107,0.7159 -1.0985,0.2598 -1.8995,0.4569 -2.7907,1.2147 -0.2866,0.2438 -0.5755,0.5345 -0.8745,0.8859 -0.6512,0.2735 -1.1586,0.8424 -1.591,1.4896 -0.7123,1.0657 -1.0076,2.1721 -1.1503,3.4321 -0.072,0.6354 -0.1412,1.2647 -0.3622,1.8605 -0.1624,0.4379 -0.4362,0.8616 -0.8463,1.3075 -0.004,-0.1379 -0.0207,-0.2766 -0.0519,-0.4158 -0.1714,-0.7649 -0.9311,-1.1463 -1.5597,-1.0211 -1.1326,0.2254 -1.6337,1.938 -0.4319,2.3685 -0.5125,-0.7903 0.6198,-1.4358 0.9001,-0.5888 0.1612,0.4871 -0.2408,1.2075 -0.8255,1.83 -0.7174,0.7638 -1.6834,1.3893 -1.9532,1.5839 -0.9155,0.6605 -1.5801,1.1491 -2.1134,2.1903 -0.1715,0.3349 -0.3272,0.714 -0.4689,1.1531 -0.497,0.5018 -0.7481,1.2216 -0.9,1.985 -0.2501,1.2572 -0.0996,2.3924 0.2507,3.611 0.1767,0.6147 0.3535,1.2225 0.3774,1.8575 0.0175,0.4668 -0.0733,0.963 -0.2815,1.5319 -0.0565,-0.1259 -0.125,-0.2476 -0.2071,-0.3643 -0.4511,-0.6411 -1.2989,-0.7027 -1.8317,-0.3465 -0.9602,0.6417 -0.7677,2.4157 0.5074,2.3535 -0.776,-0.5341 0.0231,-1.5637 0.6062,-0.8884 0.3353,0.3883 0.2396,1.2077 -0.0624,2.0066 -0.3705,0.9802 -1.0235,1.9277 -1.1983,2.2108 -0.5931,0.9605 -1.0202,1.6662 -1.1144,2.8323 -0.0303,0.375 -0.0291,0.7849 0.008,1.2448 -0.2671,0.6538 -0.2235,1.4149 -0.0718,2.1783 0.25,1.2572 0.8235,2.2484 1.6135,3.2402 0.3984,0.5002 0.7945,0.9941 1.0595,1.5717 0.1948,0.4245 0.3007,0.9177 0.3261,1.523 -0.1003,-0.0947 -0.2102,-0.181 -0.3307,-0.2574 -0.662,-0.4196 -1.4689,-0.152 -1.8249,0.3809 -0.6414,0.9603 0.2152,2.5256 1.3695,1.9802 -0.9213,-0.1965 -0.5771,-1.4535 0.2201,-1.0528 0.4583,0.2304 0.6835,1.0241 0.7102,1.8778 0.0328,1.0473 -0.2079,2.1726 -0.2611,2.501 -0.1804,1.1144 -0.3048,1.9298 0.0543,3.0432 0.1155,0.358 0.2736,0.7362 0.4838,1.147 0.0034,0.7062 0.3349,1.3927 0.7673,2.0399 0.7121,1.0659 1.6212,1.7621 2.7306,2.3761 0.5596,0.3097 1.1144,0.6145 1.5803,1.0466 0.3425,0.3177 0.6291,0.7329 0.8842,1.2824 -0.129,-0.0492 -0.2635,-0.0868 -0.4041,-0.1113 -0.7722,-0.1344 -1.4153,0.4216 -1.5402,1.0502 -0.2251,1.1327 1.1653,2.251 2.0229,1.3054 -0.9263,0.171 -1.0893,-1.1221 -0.1994,-1.0569 0.5116,0.0375 1.0234,0.6846 1.3747,1.463 0.4312,0.9551 0.6393,2.0869 0.7159,2.4107 0.2598,1.0985 0.4569,1.8995 1.2148,2.7907 0.2437,0.2866 0.5344,0.5755 0.8858,0.8745 0.2735,0.6512 0.8424,1.1586 1.4896,1.5911 1.0657,0.7122 2.1721,1.0075 3.4321,1.1502 0.6354,0.072 1.2647,0.1412 1.8605,0.3622 0.438,0.1624 0.8616,0.4363 1.3075,0.8464 -0.1379,0.004 -0.2766,0.0206 -0.4158,0.0518 -0.7649,0.1714 -1.1462,0.9312 -1.0211,1.5597 0.2255,1.1326 1.938,1.6337 2.3685,0.4319 -0.7903,0.5125 -1.4358,-0.6198 -0.5888,-0.9001 0.4871,-0.1612 1.2075,0.2409 1.83,0.8255 0.7638,0.7174 1.3893,1.6834 1.584,1.9532 0.6604,0.9155 1.149,1.5801 2.1902,2.1134 0.3348,0.1715 0.714,0.3272 1.153,0.469 0.5019,0.497 1.2217,0.748 1.9851,0.8999 1.2572,0.2501 2.3924,0.0996 3.611,-0.2507 0.6147,-0.1767 1.2225,-0.3535 1.8575,-0.3774 0.4668,-0.0175 0.963,0.0735 1.5319,0.2816 -0.1259,0.0565 -0.2476,0.1249 -0.3643,0.207 -0.6411,0.4511 -0.7026,1.2989 -0.3465,1.8317 0.6417,0.9603 2.4156,0.7677 2.3535,-0.5074 -0.5341,0.776 -1.5637,-0.0231 -0.8884,-0.6062 0.3883,-0.3353 1.2077,-0.2396 2.0066,0.0624 0.9802,0.3705 1.9277,1.0236 2.2108,1.1983 0.9605,0.5931 1.6662,1.0202 2.8323,1.1144 0.375,0.0303 0.7848,0.0291 1.2448,-0.008 0.6538,0.2671 1.4149,0.2236 2.1783,0.0718 1.2572,-0.25 2.2484,-0.8235 3.2402,-1.6135 0.5002,-0.3984 0.9941,-0.7945 1.5716,-1.0595 0.4246,-0.1948 0.9179,-0.3007 1.5231,-0.3261 -0.0947,0.1003 -0.181,0.2102 -0.2574,0.3307 -0.4197,0.6621 -0.1521,1.4689 0.3809,1.8249 0.9603,0.6414 2.5256,-0.2152 1.9802,-1.3694 -0.1965,0.9212 -1.4536,0.577 -1.0528,-0.2202 0.2304,-0.4583 1.0241,-0.6835 1.8777,-0.7102 1.0474,-0.0328 2.1727,0.208 2.5011,0.2611 1.1144,0.1804 1.9298,0.3048 3.0432,-0.0543 0.358,-0.1155 0.7361,-0.2735 1.1469,-0.4837 0.7063,-0.0035 1.3928,-0.335 2.04,-0.7674 1.0658,-0.7121 1.7621,-1.6212 2.3761,-2.7306 0.3097,-0.5596 0.6144,-1.1144 1.0466,-1.5803 0.3177,-0.3425 0.7328,-0.629 1.2823,-0.8841 -0.0491,0.129 -0.0867,0.2634 -0.1112,0.404 -0.1344,0.7723 0.4216,1.4153 1.0502,1.5402 1.1327,0.2251 2.251,-1.1653 1.3054,-2.0229 0.171,0.9263 -1.1221,1.0893 -1.0569,0.1995 0.0375,-0.5117 0.6846,-1.0234 1.463,-1.3748 0.9551,-0.4311 2.0869,-0.6393 2.4107,-0.7159 1.0985,-0.2598 1.8995,-0.4569 2.7906,-1.2147 0.2866,-0.2438 0.5755,-0.5344 0.8745,-0.8858 0.6512,-0.2735 1.1586,-0.8425 1.5912,-1.4897 0.7121,-1.0657 1.0075,-2.1721 1.1502,-3.4321 0.072,-0.6354 0.1412,-1.2647 0.3622,-1.8605 0.1624,-0.4379 0.4362,-0.8615 0.8463,-1.3074 0.004,0.1379 0.0207,0.2765 0.0519,0.4157 0.1714,0.7649 0.9311,1.1463 1.5597,1.0211 1.1326,-0.2254 1.6337,-1.938 0.4319,-2.3685 0.5125,0.7903 -0.6198,1.4358 -0.9001,0.5888 -0.1612,-0.4871 0.2408,-1.2075 0.8255,-1.83 0.7174,-0.7638 1.6834,-1.3893 1.9532,-1.5839 0.9155,-0.6605 1.5801,-1.1491 2.1134,-2.1903 0.1715,-0.3348 0.3272,-0.7139 0.4689,-1.153 0.497,-0.5018 0.7481,-1.2217 0.9,-1.9851 0.2501,-1.2572 0.0996,-2.3924 -0.2507,-3.6111 -0.1767,-0.6146 -0.3535,-1.2224 -0.3774,-1.8574 -0.0175,-0.4668 0.0733,-0.9629 0.2815,-1.5319 0.0565,0.1259 0.125,0.2476 0.2071,0.3643 0.451,0.6411 1.2989,0.7027 1.8317,0.3465 0.9602,-0.6417 0.7677,-2.4157 -0.5074,-2.3535 0.776,0.5341 -0.0231,1.5637 -0.6062,0.8884 -0.3353,-0.3883 -0.2396,-1.2077 0.0624,-2.0066 0.3705,-0.9802 1.0235,-1.9277 1.1983,-2.2108 0.5931,-0.9605 1.0202,-1.6662 1.1144,-2.8323 0.0303,-0.375 0.0291,-0.7848 -0.008,-1.2447 0.2671,-0.6538 0.2236,-1.415 0.0718,-2.1784 -0.25,-1.2572 -0.8235,-2.2484 -1.6135,-3.2402 -0.3984,-0.5002 -0.7945,-0.9941 -1.0595,-1.5716 -0.1948,-0.4246 -0.3008,-0.9178 -0.3261,-1.5231 0.1003,0.0947 0.2102,0.181 0.3307,0.2574 0.662,0.4197 1.4689,0.152 1.8249,-0.3809 0.6414,-0.9603 -0.2152,-2.5256 -1.3695,-1.9802 0.9213,0.1965 0.5771,1.4536 -0.2201,1.0528 -0.4583,-0.2304 -0.6835,-1.0241 -0.7102,-1.8777 -0.0328,-1.0474 0.2079,-2.1727 0.2611,-2.5011 0.1804,-1.1144 0.3048,-1.9298 -0.0543,-3.0432 -0.1155,-0.358 -0.2735,-0.7362 -0.4838,-1.1469 -0.0034,-0.7063 -0.3349,-1.3928 -0.7673,-2.04 -0.7121,-1.0658 -1.6212,-1.7621 -2.7307,-2.3761 -0.5595,-0.3097 -1.1143,-0.6145 -1.5802,-1.0466 -0.3425,-0.3177 -0.6291,-0.7328 -0.8842,-1.2823 0.129,0.0491 0.2635,0.0867 0.4041,0.1112 0.7722,0.1344 1.4153,-0.4216 1.5402,-1.0502 0.2251,-1.1327 -1.1653,-2.251 -2.023,-1.3054 0.9263,-0.171 1.0894,1.1221 0.1995,1.0569 -0.5116,-0.0375 -1.0234,-0.6846 -1.3747,-1.463 -0.4311,-0.9551 -0.6393,-2.0869 -0.7159,-2.4107 -0.2598,-1.0985 -0.4569,-1.8995 -1.2148,-2.7907 -0.2437,-0.2866 -0.5344,-0.5755 -0.8858,-0.8745 -0.2735,-0.6512 -0.8424,-1.1586 -1.4896,-1.5911 -1.0657,-0.7122 -2.1721,-1.0075 -3.4321,-1.1502 -0.6354,-0.072 -1.2647,-0.1412 -1.8605,-0.3622 -0.4379,-0.1624 -0.8616,-0.4363 -1.3075,-0.8463 0.1379,-0.004 0.2766,-0.0207 0.4159,-0.0519 0.7648,-0.1714 1.1461,-0.9312 1.021,-1.5597 -0.2255,-1.1326 -1.938,-1.6337 -2.3685,-0.4319 0.7903,-0.5125 1.4358,0.6198 0.5888,0.9001 -0.4871,0.1612 -1.2075,-0.2409 -1.83,-0.8256 -0.7639,-0.7173 -1.3893,-1.6833 -1.584,-1.9531 -0.6604,-0.9155 -1.149,-1.5801 -2.1902,-2.1134 -0.3349,-0.1715 -0.714,-0.3272 -1.1531,-0.469 -0.5019,-0.4969 -1.2216,-0.748 -1.985,-0.8999 -1.2572,-0.2501 -2.3924,-0.0996 -3.6111,0.2507 -0.6146,0.1767 -1.2224,0.3535 -1.8574,0.3774 -0.4668,0.0175 -0.963,-0.0734 -1.5319,-0.2816 0.1259,-0.0564 0.2476,-0.1249 0.3643,-0.207 0.6411,-0.4511 0.7026,-1.2989 0.3465,-1.8318 -0.6417,-0.9601 -2.4157,-0.7676 -2.3535,0.5075 0.5341,-0.776 1.5637,0.0231 0.8884,0.6062 -0.3883,0.3353 -1.2077,0.2396 -2.0066,-0.0624 -0.9802,-0.3705 -1.9277,-1.0236 -2.2108,-1.1983 -0.9605,-0.5932 -1.6662,-1.0202 -2.8323,-1.1144 -0.375,-0.0303 -0.7848,-0.0291 -1.2447,0.008 -0.6538,-0.2671 -1.415,-0.2236 -2.1784,-0.0718 -1.2572,0.25 -2.2484,0.8235 -3.2402,1.6135 -0.5002,0.3984 -0.9941,0.7945 -1.5716,1.0595 -0.4246,0.1948 -0.9178,0.3007 -1.5231,0.3261z"/>
  <polygon class="fil0" points="43.5885,10.8862 47.1304,10.8862 49.3299,8.1213 51.5438,10.8862 55.0713,10.8862 54.282,14.3443 56.4893,17.0988 53.3026,18.6352 52.5162,22.0811 49.3262,20.5449 46.1436,22.0811 45.3614,18.6355 42.1704,17.0988 44.3774,14.3313 "/>
  <polygon class="fil3" points="44.0697,11.2395 47.3148,11.2395 49.3299,8.7063 51.3582,11.2395 54.5901,11.2395 53.8669,14.4077 55.8892,16.9314 52.9696,18.339 52.2491,21.4961 49.3265,20.0886 46.4107,21.4961 45.694,18.3393 42.7705,16.9314 44.7925,14.3958 "/>
  <path class="fil0" d="M71.7072 86.8626c-1.4634,0.2907 -2.1664,0.9034 -4.3091,0.9037 -2.8116,0.0004 -3.1168,-1.0579 -5.9598,-1.0519 -2.8431,0.0059 -3.2429,1.0742 -6.1031,1.0772 -2.8602,0.0029 -3.2056,-1.0617 -6.0321,-1.0647 -2.8265,-0.003 -3.1176,1.0577 -5.9599,1.0519 -2.8422,-0.0058 -3.2745,-1.0678 -6.0995,-1.0766 -2.825,-0.0088 -3.1115,1.0394 -5.888,1.0393 -0.7885,-0.0001 -1.3776,-0.0844 -1.8814,-0.2051 -4.5046,-2.4689 -8.5169,-5.7243 -11.8513,-9.5822 0.4917,0.1078 1.0648,0.1808 1.8095,0.1808 2.8433,0 3.2214,-1.0587 6.0316,-1.0646 2.8101,-0.0058 3.1151,1.0397 5.8916,1.0399 2.7765,0.0002 3.0629,-1.0481 5.888,-1.0393 2.8251,0.0088 3.2573,1.0708 6.0995,1.0767 2.8423,0.0057 3.1335,-1.055 5.9599,-1.052 2.8265,0.003 3.1719,1.0676 6.0322,1.0647 2.8602,-0.003 3.2599,-1.0713 6.103,-1.0772 2.843,-0.006 3.1482,1.0523 5.9599,1.0519 2.8116,-0.0004 3.1439,-1.0555 5.9689,-1.0535 2.8249,0.002 3.1879,1.0605 6.0165,1.0619 1.648,0.0008 2.4495,-0.3579 3.3893,-0.6574 -3.1215,3.7171 -6.8628,6.8957 -11.0657,9.3765zm-13.1011 -5.5338c0.4058,0 0.7348,0.3291 0.7348,0.7348l0 0.7348c0,0.4057 -0.329,0.7348 -0.7348,0.7348l-0.7348 0 0 -2.2044 0.7348 0zm0 2.9392c0.8116,0 1.4697,-0.6581 1.4697,-1.4696l0 -0.7348c0,-0.8115 -0.6581,-1.4696 -1.4697,-1.4696l-1.4696 0 0 3.674 1.4696 0zm-2.9393 -3.674l0.7348 0 0 3.674 -0.7348 0 0 -3.674zm-1.4696 0l0.7348 0 0 3.674 -0.7348 0 -1.4697 -2.3067 0 2.3067 -0.7348 0 0 -3.674 0.7348 0 1.4697 2.3066 0 -2.3066zm-11.0224 0l2.2045 0 0 0.7349 -1.4697 0 0 0.7347 1.4697 0 0 0.7349 -1.4697 0 0 0.7347 1.4697 0 0 0.7348 -2.2045 0 0 -3.674zm-2.9393 -0.0001l0.7348 0 0 2.9393 1.4697 0 0 0.7348 -2.2045 0 0 -3.6741zm7.7159 2.9393l0.7346 0c0.6086,0 1.1022,-0.4936 1.1022,-1.1022 0,-0.6086 -0.5027,-1.1001 -1.1022,-1.1022l-0.7346 0 0 0.7348 0.7346 0c0.2029,0 0.3674,0.1645 0.3674,0.3674 0,0.2029 -0.1645,0.3674 -0.3674,0.3674l-0.7346 0 0 0.7348zm0.7346 -3.6741c1.4202,0 2.5719,1.1517 2.5719,2.5719 0,1.4202 -1.1517,2.5719 -2.5719,2.5719 -1.4202,0 -2.5719,-1.1517 -2.5719,-2.5719 0,-1.4202 1.1517,-2.5719 2.5719,-2.5719zm0 0.7348c1.0144,0 1.837,0.8227 1.837,1.8371 0,1.0144 -0.8226,1.837 -1.837,1.837 -1.0144,0 -1.8371,-0.8226 -1.8371,-1.837 0,-1.0144 0.8227,-1.8371 1.8371,-1.8371z"/>
  <path class="fil4" d="M72.8858 86.1687c-2.3552,0.1191 -2.8176,1.0405 -5.4453,1.0408 -2.8116,0.0004 -3.1169,-1.0578 -5.9599,-1.0519 -2.8431,0.006 -3.2428,1.0742 -6.103,1.0772 -2.8603,0.003 -3.2057,-1.0617 -6.0322,-1.0647 -2.8264,-0.0029 -3.1176,1.0578 -5.9599,1.052 -2.8422,-0.0058 -3.2744,-1.0678 -6.0995,-1.0766 -2.8251,-0.0088 -3.1115,1.0394 -5.8879,1.0392 -1.9231,-0.0001 -2.6607,-0.5016 -3.8661,-0.808 -3.452,-2.141 -6.5769,-4.7588 -9.2825,-7.7624 0.3555,0.0484 0.7562,0.0775 1.2252,0.0775 2.8434,0 3.2216,-1.0588 6.0317,-1.0646 2.8102,-0.0058 3.1151,1.0397 5.8916,1.0398 2.7765,0.0002 3.063,-1.048 5.888,-1.0392 2.8251,0.0088 3.2573,1.0708 6.0996,1.0766 2.8422,0.0058 3.1334,-1.0549 5.9599,-1.0519 2.8264,0.003 3.1718,1.0676 6.0321,1.0646 2.8602,-0.0029 3.2599,-1.0712 6.103,-1.0772 2.843,-0.0059 3.1482,1.0523 5.9599,1.052 2.8116,-0.0004 3.144,-1.0555 5.9689,-1.0536 2.825,0.002 3.188,1.0606 6.0164,1.0619 1.2512,0.0006 2.0144,-0.2059 2.7206,-0.4365 -2.6901,3.0528 -5.8077,5.7194 -9.2606,7.905z"/>
 </g>
</svg>
