<svg viewBox="0 0 14933 15480" xmlns="http://www.w3.org/2000/svg"><path d="M11087.41 9211.29c-2695.72 13.7-3131.78 1697.02-3277.11 3120.34l-66.06 629.52h-541.83l-66.06-629.52c-145.33-1423.32-594.61-3106.65-3197.84-3120.34-436.06-930.68-621.06-1683.39-621.06-2531.9 0-2121.25 1678.22-4105.74 4162.45-4105.74 2484.28 0 4136.06 1970.73 4136.06 4119.49 0 834.76-79.27 1587.47-528.55 2518.15ZM7453.52.73C3357.13.73.68 3476.94.68 7733.14c0 4270.01 3356.45 7746.16 7452.84 7746.16 4136 0 7479.23-3476.15 7479.23-7746.16C14932.75 3476.95 11589.52.73 7453.52.73Z" fill="#29B24A" fill-rule="nonzero"/></svg>
